<svg xmlns="http://www.w3.org/2000/svg" width="36" height="36" viewBox="0 0 36 36">
  <g id="Group_641" data-name="Group 641" transform="translate(-1203.5 -1496.5)">
    <g id="google-plus" transform="translate(1204 1497)">
      <g id="Group_637" data-name="Group 637" transform="translate(0)">
        <circle id="XMLID_30_" cx="17.5" cy="17.5" r="17.5" transform="translate(0)" fill="#343433" stroke="#646161" stroke-width="1"/>
      </g>
    </g>
    <g id="Group_640" data-name="Group 640" transform="translate(1209.4 1502.903)">
      <path id="amazon" d="M.046,18.023C.12,17.9.238,17.9.4,18a23.75,23.75,0,0,0,12.126,3.233A24,24,0,0,0,21.155,19.6l.322-.133c.141-.061.241-.1.3-.133a.413.413,0,0,1,.536.133c.123.178.092.342-.123.49-.261.193-.613.417-1.027.668a16.544,16.544,0,0,1-4.275,1.762,18.042,18.042,0,0,1-4.613.624A17.888,17.888,0,0,1,5.7,21.8,18.11,18.11,0,0,1,.153,18.378.282.282,0,0,1,0,18.156.23.23,0,0,1,.046,18.023Zm6.706-6.352A4.5,4.5,0,0,1,7.51,9.04a4.655,4.655,0,0,1,2.084-1.65,11.324,11.324,0,0,1,2.973-.736c.4-.046,1.057-.1,1.962-.178V6.1a4.089,4.089,0,0,0-.306-1.916,1.656,1.656,0,0,0-1.471-.671h-.185a2.439,2.439,0,0,0-1.272.469A1.852,1.852,0,0,0,10.6,5.1a.572.572,0,0,1-.444.521L7.586,5.3c-.253-.061-.38-.184-.38-.4a.619.619,0,0,1,.023-.153A4.3,4.3,0,0,1,9.089,1.8,7.153,7.153,0,0,1,12.552.731H13.1a5.665,5.665,0,0,1,3.969,1.318c.138.153.276.306.414.49a2.778,2.778,0,0,1,.291.46,1.969,1.969,0,0,1,.2.582c.061.261.107.429.138.521a3.048,3.048,0,0,1,.077.628c.015.322.031.506.031.567v5.394a3.325,3.325,0,0,0,.169,1.057,2.431,2.431,0,0,0,.322.69l.521.69a.688.688,0,0,1,.138.368.4.4,0,0,1-.184.322c-1.226,1.073-1.9,1.655-2.007,1.747a.6.6,0,0,1-.644.046A5.743,5.743,0,0,1,16,15.105l-.322-.352c-.061-.077-.169-.215-.322-.429l-.306-.444a5.494,5.494,0,0,1-2.452,1.7,6.48,6.48,0,0,1-1.87.23,3.925,3.925,0,0,1-2.82-1.057,3.957,3.957,0,0,1-1.1-3Zm3.834-.447a2.123,2.123,0,0,0,.434,1.395,1.465,1.465,0,0,0,1.18.521,1.417,1.417,0,0,0,.2-.02,1.292,1.292,0,0,1,.169-.023,2.293,2.293,0,0,0,1.456-1.2,3.2,3.2,0,0,0,.368-.926,3.894,3.894,0,0,0,.138-.812c.015-.2.015-.552.015-1.027V8.577a7.9,7.9,0,0,0-1.962.184,2.394,2.394,0,0,0-1.962,2.483Zm9.36,7.178a.765.765,0,0,1,.133-.179,3.525,3.525,0,0,1,1.073-.512,7.908,7.908,0,0,1,1.647-.245,1.281,1.281,0,0,1,.423.031c.67.061,1.073.169,1.2.337a.732.732,0,0,1,.089.4v.153a5.079,5.079,0,0,1-.423,1.839,4.463,4.463,0,0,1-1.18,1.716.34.34,0,0,1-.2.092.176.176,0,0,1-.089-.015c-.092-.046-.112-.123-.067-.245a8.409,8.409,0,0,0,.824-2.7.591.591,0,0,0-.089-.352c-.149-.169-.564-.261-1.249-.261-.251,0-.549.015-.889.046q-.561.069-1.027.138a.252.252,0,0,1-.179-.046c-.031-.031-.037-.046-.021-.077a.144.144,0,0,1,.021-.061Z" transform="translate(0 -0.731)" fill="#f90"/>
      <path id="amazon-2" data-name="amazon" d="M7.3,11.671A4.5,4.5,0,0,1,8.057,9.04a4.655,4.655,0,0,1,2.084-1.65,11.324,11.324,0,0,1,2.973-.736c.4-.046,1.057-.1,1.962-.178V6.1a4.089,4.089,0,0,0-.306-1.916A1.656,1.656,0,0,0,13.3,3.511h-.185a2.439,2.439,0,0,0-1.272.469,1.852,1.852,0,0,0-.69,1.119.572.572,0,0,1-.444.521L8.133,5.3c-.253-.061-.38-.184-.38-.4a.619.619,0,0,1,.023-.153A4.3,4.3,0,0,1,9.636,1.8,7.153,7.153,0,0,1,13.1.731h.552A5.665,5.665,0,0,1,17.62,2.049c.138.153.276.306.414.49a2.778,2.778,0,0,1,.291.46,1.969,1.969,0,0,1,.2.582c.061.261.107.429.138.521a3.048,3.048,0,0,1,.077.628c.015.322.031.506.031.567v5.394a3.325,3.325,0,0,0,.169,1.057,2.431,2.431,0,0,0,.322.69l.521.69a.688.688,0,0,1,.138.368.4.4,0,0,1-.184.322c-1.226,1.073-1.9,1.655-2.007,1.747a.6.6,0,0,1-.644.046,5.743,5.743,0,0,1-.536-.506l-.322-.352c-.061-.077-.169-.215-.322-.429l-.306-.444a5.494,5.494,0,0,1-2.452,1.7,6.48,6.48,0,0,1-1.87.23,3.925,3.925,0,0,1-2.82-1.057,3.957,3.957,0,0,1-1.1-3Zm3.834-.447a2.123,2.123,0,0,0,.434,1.395,1.465,1.465,0,0,0,1.18.521,1.417,1.417,0,0,0,.2-.02,1.292,1.292,0,0,1,.169-.023,2.293,2.293,0,0,0,1.456-1.2,3.2,3.2,0,0,0,.368-.926,3.894,3.894,0,0,0,.138-.812c.015-.2.015-.552.015-1.027V8.577a7.9,7.9,0,0,0-1.962.184,2.394,2.394,0,0,0-1.962,2.483Z" transform="translate(-0.547 -0.731)" fill="#fff"/>
    </g>
  </g>
</svg>
