<svg xmlns="http://www.w3.org/2000/svg" width="58.798" height="46.114" viewBox="0 0 58.798 46.114">
  <g id="dollar-symbol_1_" data-name="dollar-symbol (1)" transform="translate(0 -12.009)">
    <g id="Group_1442" data-name="Group 1442" transform="translate(0 12.009)">
      <path id="Path_8373" data-name="Path 8373" d="M56.617,338.055c-1.12-.085-3.444,1.18-4.089,1.5a72.308,72.308,0,0,0-7.484,4.356c-.146.1-.341.231-.487.316a8.81,8.81,0,0,1-3.006,1.229,95.718,95.718,0,0,1-14.773,1.424l-.511.024a.726.726,0,1,1-.11-1.448l13.033-1.241a2.746,2.746,0,0,0-.56-5.464L27.047,338.6a12.869,12.869,0,0,1-2.811-.426c-7.472-2.178-11.682-.134-13.921.815a2.7,2.7,0,0,0-2.507-1.29l-5,.329a2.934,2.934,0,0,0-2.8,3.1l.8,11.1a2.977,2.977,0,0,0,3.213,2.7l5-.329A2.657,2.657,0,0,0,11.313,353l21.952.949a11.75,11.75,0,0,0,6.887-1.168l.633-.329,16.586-9.711a2.732,2.732,0,0,0,1.424-2.227A2.256,2.256,0,0,0,56.617,338.055ZM5.861,352.3a1.644,1.644,0,1,1,0-3.286,1.644,1.644,0,1,1,0,3.286Z" transform="translate(0 -308.826)" fill="#0d223f"/>
      <path id="Path_8374" data-name="Path 8374" d="M362.546,333.928a74.189,74.189,0,0,1,7.119-4.052,16.643,16.643,0,0,1,1.886-.827,2.8,2.8,0,0,0-2.714-.231c-1.862.742-5.293,2.4-7.046,3.346a.173.173,0,0,0-.024.073,5.091,5.091,0,0,1,.256,1.132,5.89,5.89,0,0,1,.012.925Q362.272,334.11,362.546,333.928Z" transform="translate(-317.745 -301.243)" fill="#0d223f"/>
      <path id="Path_8375" data-name="Path 8375" d="M350.512,318.209a2.8,2.8,0,0,0-2.677-.207c-1.156.45-3.724,1.29-4.867,1.9a5.715,5.715,0,0,1,1.3,1.12c.073-.049.146-.11.231-.158l.84-.462C346.557,319.73,349.173,318.806,350.512,318.209Z" transform="translate(-301.232 -291.742)" fill="#0d223f"/>
      <path id="Path_8377" data-name="Path 8377" d="M177.207,130.445a13.24,13.24,0,1,0-13.24-13.24A13.238,13.238,0,0,0,177.207,130.445Zm-4.624-8.007c.122-.438.243-.876.377-1.3.158-.5.292-.56.754-.329a7.207,7.207,0,0,0,2.495.742,2.987,2.987,0,0,0,1.631-.219,1.267,1.267,0,0,0,.3-2.227,3.943,3.943,0,0,0-.925-.548,22.768,22.768,0,0,1-2.555-1.144,3.616,3.616,0,0,1-2.044-3.444,3.8,3.8,0,0,1,2.774-3.517c.681-.243.681-.243.694-.949v-.718c.012-.535.11-.633.633-.645h.5c1.132,0,1.132,0,1.144,1.132,0,.8,0,.8.8.937a7.368,7.368,0,0,1,1.764.523.517.517,0,0,1,.341.681c-.146.487-.28.986-.438,1.472-.146.462-.292.523-.742.316a5.724,5.724,0,0,0-2.8-.56,1.933,1.933,0,0,0-.742.158,1.06,1.06,0,0,0-.268,1.886,4.966,4.966,0,0,0,1.217.681,22.737,22.737,0,0,1,2.215,1,3.972,3.972,0,0,1,1.278,6.048,4.2,4.2,0,0,1-2.2,1.412.62.62,0,0,0-.535.706c.012.389,0,.779,0,1.168a.487.487,0,0,1-.523.548c-.426.012-.84.012-1.266,0a.512.512,0,0,1-.548-.572c0-.28,0-.572-.012-.852-.012-.633-.024-.657-.633-.754a8.084,8.084,0,0,1-2.251-.645C172.473,123.168,172.424,123.022,172.582,122.438Z" transform="translate(-144.014 -103.966)" fill="#5099ff"/>
    </g>
  </g>
</svg>
