<svg xmlns="http://www.w3.org/2000/svg" width="51.2" height="45" viewBox="0 0 51.2 45">
  <g id="portfolio" transform="translate(0)">
    <path id="Path_8356" data-name="Path 8356" d="M211,240h9v3h-9Zm0,0" transform="translate(-189.9 -216)" fill="#5099ff"/>
    <path id="Path_8357" data-name="Path 8357" d="M41.538,96.669H33.1v1.5a1.5,1.5,0,0,1-1.5,1.5h-12a1.5,1.5,0,0,1-1.5-1.5v-1.5H9.662a4.5,4.5,0,0,1-4.269-3.076L0,77.41v32.759a4.505,4.505,0,0,0,4.5,4.5H46.7a4.505,4.505,0,0,0,4.5-4.5V77.411L45.806,93.593a4.494,4.494,0,0,1-4.268,3.076Zm0,0" transform="translate(0 -69.669)" fill="#0d223f"/>
    <path id="Path_8358" data-name="Path 8358" d="M54.828,0h-12a4.505,4.505,0,0,0-4.5,4.5V6H25.809l5.657,16.975A1.5,1.5,0,0,0,32.89,24h8.438V22.5a1.5,1.5,0,0,1,1.5-1.5h12a1.5,1.5,0,0,1,1.5,1.5V24h8.438a1.5,1.5,0,0,0,1.424-1.025L71.848,6H59.328V4.5a4.505,4.505,0,0,0-4.5-4.5Zm-13.5,6V4.5a1.5,1.5,0,0,1,1.5-1.5h12a1.5,1.5,0,0,1,1.5,1.5V6Zm0,0" transform="translate(-23.228)" fill="#0d223f"/>
  </g>
</svg>
