<svg xmlns="http://www.w3.org/2000/svg" width="54.671" height="31.667" viewBox="0 0 54.671 31.667">
  <g id="deal" transform="translate(0 -4.949)">
    <path id="Path_8367" data-name="Path 8367" d="M26.463,9.157V24.123a4.235,4.235,0,0,1-3.918.615l-.433-.159a6.978,6.978,0,0,0-1.276-8.041L13.16,8.861l6.1-2.141Z" transform="translate(16.818 2.264)" fill="#5099ff"/>
    <path id="Path_8368" data-name="Path 8368" d="M18.384,20.806l8.041,7.9v.023a4.42,4.42,0,0,1-1.139,1.936,4.743,4.743,0,0,1-3.554,1.367l-8.565-8.565a.9.9,0,0,0-.3.683.93.93,0,0,0,.433.8l8.132,7.973a4.537,4.537,0,0,1-.98,1.481,4.773,4.773,0,0,1-3.394,1.39,4.673,4.673,0,0,1-3.28-1.321L8.771,29.94A9.766,9.766,0,0,0,4.99,27.8a.631.631,0,0,0,.023-.205V8.46l5.854-2.415a5.942,5.942,0,0,1,5.125.273l-.364.182a6.891,6.891,0,0,0-1.8,11.048,6.892,6.892,0,0,0,4.283,1.982.8.8,0,0,0-.159.478.9.9,0,0,0,.433.8Z" transform="translate(6.377 0.82)" fill="#0d223f"/>
    <path id="Path_8369" data-name="Path 8369" d="M22.849,19.211a3.7,3.7,0,0,1-.706.98,4.846,4.846,0,0,1-3.03,1.481l-8.223-8.2h.273a7.1,7.1,0,0,0,3.144-.752l.729-.387,3.918-1.982,3.166,3.166.023.023A4.726,4.726,0,0,1,22.849,19.211Z" transform="translate(13.917 6.903)" fill="#0d223f"/>
    <path id="Path_8370" data-name="Path 8370" d="M7.4,28.779H1.708A1.709,1.709,0,0,1,0,27.071V7.708A1.709,1.709,0,0,1,1.708,6H7.4A1.709,1.709,0,0,1,9.112,7.708V27.071A1.709,1.709,0,0,1,7.4,28.779Z" transform="translate(0 1.344)" fill="#0d223f"/>
    <path id="Path_8371" data-name="Path 8371" d="M27.4,28.779H21.708A1.709,1.709,0,0,1,20,27.071V7.708A1.709,1.709,0,0,1,21.708,6H27.4a1.709,1.709,0,0,1,1.708,1.708V27.071A1.709,1.709,0,0,1,27.4,28.779Z" transform="translate(25.559 1.344)" fill="#5099ff"/>
    <path id="Path_8372" data-name="Path 8372" d="M29.383,7.572c-.023,0-.046-.023-.091-.023L24.076,5.407a6.021,6.021,0,0,0-5.011.182L12.845,8.71l-1.3.638a4.614,4.614,0,0,0-1.207,7.4,4.624,4.624,0,0,0,5.353.843l.752-.387,3.257-1.64,9.066-4.556,3.03,1.253V9.052a1.476,1.476,0,0,1,.046-.456Z" transform="translate(11.483 0)" fill="#5099ff"/>
  </g>
</svg>
