<svg xmlns="http://www.w3.org/2000/svg" width="39.877" height="48" viewBox="0 0 39.877 48">
  <g id="Group_1443" data-name="Group 1443" transform="translate(-576 -806)">
    <path id="Subtraction_1" data-name="Subtraction 1" d="M33.97,48H8.123a5.914,5.914,0,0,1-5.908-5.908V39.138H5.539a3.323,3.323,0,0,0,0-6.646H2.216V27.323H5.539a3.323,3.323,0,0,0,0-6.646H2.216V15.508H5.539a3.323,3.323,0,0,0,0-6.646H2.216V5.908A5.914,5.914,0,0,1,8.123,0H33.97a5.914,5.914,0,0,1,5.908,5.908V42.092A5.914,5.914,0,0,1,33.97,48ZM16.263,22.476a6.017,6.017,0,0,0-2.228.4,5.35,5.35,0,0,0-1.746,1.1,6.886,6.886,0,0,0-1.215,1.583,9.716,9.716,0,0,0-.806,1.829,15.246,15.246,0,0,0-.48,1.96,18.392,18.392,0,0,0-.25,1.95c-.041.592-.061,1.205-.061,1.822A5.125,5.125,0,0,0,11,37a5.479,5.479,0,0,0,3.921,1.43H29.777A5.479,5.479,0,0,0,33.7,37a5.123,5.123,0,0,0,1.522-3.877c0-.624-.021-1.238-.062-1.823a18.238,18.238,0,0,0-.25-1.949,15.35,15.35,0,0,0-.479-1.96,9.663,9.663,0,0,0-.806-1.829,6.886,6.886,0,0,0-1.215-1.583,5.356,5.356,0,0,0-1.746-1.1,6.024,6.024,0,0,0-2.228-.4,2.26,2.26,0,0,0-1.208.512c-.391.255-.815.528-1.258.811a7.153,7.153,0,0,1-1.628.717,6.317,6.317,0,0,1-3.983,0A7.173,7.173,0,0,1,18.73,23.8c-.453-.29-.877-.563-1.26-.812A2.259,2.259,0,0,0,16.263,22.476Zm5.891-14.9A7.433,7.433,0,0,0,14.722,15a7.433,7.433,0,0,0,7.432,7.432A7.435,7.435,0,0,0,29.587,15a7.433,7.433,0,0,0-7.432-7.432ZM5.539,37.661H1.846a1.846,1.846,0,1,1,0-3.692H5.539a1.846,1.846,0,1,1,0,3.692Zm0-11.815H1.846a1.846,1.846,0,0,1,0-3.693H5.539a1.846,1.846,0,0,1,0,3.693Zm0-11.815H1.846a1.846,1.846,0,0,1,0-3.693H5.539a1.846,1.846,0,0,1,0,3.693Z" transform="translate(576 806)" fill="#0d223f"/>
    <g id="user_1_" data-name="user (1)" transform="translate(589.155 815.81)">
      <path id="Path_8379" data-name="Path 8379" d="M92.537,11.011A5.327,5.327,0,0,0,96.43,9.4a5.327,5.327,0,0,0,1.613-3.893A5.328,5.328,0,0,0,96.43,1.613a5.5,5.5,0,0,0-7.785,0,5.327,5.327,0,0,0-1.613,3.892A5.327,5.327,0,0,0,88.645,9.4,5.328,5.328,0,0,0,92.537,11.011Zm0,0" transform="translate(-83.481 -0.239)" fill="#5099ff"/>
      <path id="Path_8380" data-name="Path 8380" d="M20.247,254.272a14.473,14.473,0,0,0-.2-1.537,12.11,12.11,0,0,0-.378-1.546,7.632,7.632,0,0,0-.635-1.441,5.438,5.438,0,0,0-.958-1.249,4.224,4.224,0,0,0-1.376-.865,4.757,4.757,0,0,0-1.757-.318,1.783,1.783,0,0,0-.952.4c-.285.186-.619.4-.992.64a5.683,5.683,0,0,1-1.284.566,4.985,4.985,0,0,1-3.14,0,5.668,5.668,0,0,1-1.283-.565c-.369-.236-.7-.451-.993-.64a1.781,1.781,0,0,0-.952-.4,4.75,4.75,0,0,0-1.757.318,4.22,4.22,0,0,0-1.376.865,5.439,5.439,0,0,0-.958,1.248,7.649,7.649,0,0,0-.635,1.442,12.139,12.139,0,0,0-.378,1.545,14.422,14.422,0,0,0-.2,1.538c-.032.465-.049.949-.049,1.437a4.04,4.04,0,0,0,1.2,3.056,4.319,4.319,0,0,0,3.092,1.128H16a4.318,4.318,0,0,0,3.091-1.128,4.038,4.038,0,0,0,1.2-3.056c0-.49-.017-.974-.049-1.437Zm0,0" transform="translate(-0.955 -232.922)" fill="#5099ff"/>
    </g>
  </g>
</svg>
