<svg xmlns="http://www.w3.org/2000/svg" width="34.415" height="38" viewBox="0 0 34.415 38">
  <g id="speaker" transform="translate(0 -3)" opacity="0.8">
    <path id="Path_5179" data-name="Path 5179" d="M192.03,172.015A4.015,4.015,0,1,1,188.015,168,4.015,4.015,0,0,1,192.03,172.015Zm0,0" transform="translate(-170.808 -152.955)" fill="#9bc9ff"/>
    <path id="Path_5180" data-name="Path 5180" d="M135.789,316.589ZM131.2,312" transform="translate(-109.404 -288.782)" fill="#9bc9ff"/>
    <g id="Group_122" data-name="Group 122" transform="translate(0 3)">
      <path id="Path_5181" data-name="Path 5181" d="M180.589,169.177a4.589,4.589,0,1,1,4.589-4.589A4.589,4.589,0,0,1,180.589,169.177Zm0-8.03a3.441,3.441,0,1,0,3.441,3.442A3.442,3.442,0,0,0,180.589,161.147Zm0,0" transform="translate(-163.381 -148.528)" fill="#1e81ce"/>
      <path id="Path_5182" data-name="Path 5182" d="M56.664,315.472v-6.309A5.168,5.168,0,0,0,51.5,304H42.325a5.168,5.168,0,0,0-5.162,5.162v6.309H32v1.147H59.532v-1.147Zm-4.589,0v-6.883H50.928v6.883H42.9v-6.883H41.751v6.883H38.309v-6.309a4.02,4.02,0,0,1,4.015-4.015H51.5a4.02,4.02,0,0,1,4.015,4.015v6.309Zm0,0" transform="translate(-28.272 -278.619)" fill="#1e81ce"/>
      <path id="Path_5183" data-name="Path 5183" d="M0,464H1.147v1.147H0Zm0,0" transform="translate(0 -430.732)" fill="#1e81ce"/>
      <path id="Path_5184" data-name="Path 5184" d="M432,464h1.147v1.147H432Zm0,0" transform="translate(-401.027 -430.732)" fill="#1e81ce"/>
      <path id="Path_5185" data-name="Path 5185" d="M464,464h1.147v1.147H464Zm0,0" transform="translate(-430.732 -430.732)" fill="#1e81ce"/>
      <path id="Path_5186" data-name="Path 5186" d="M24.091,20.31V16.06H22.943V14.913h2.294v2.633l2.642-2.633h3.667a1.721,1.721,0,0,0,1.721-1.721V2.868a1.721,1.721,0,0,0-1.721-1.721H2.868A1.721,1.721,0,0,0,1.147,2.868V13.192a1.721,1.721,0,0,0,1.721,1.721h8.6V16.06h-8.6A2.871,2.871,0,0,1,0,13.192V2.868A2.871,2.871,0,0,1,2.868,0H31.547a2.871,2.871,0,0,1,2.868,2.868V13.192a2.871,2.871,0,0,1-2.868,2.868H28.354Zm0,0" transform="translate(0 0)" fill="#1e81ce"/>
      <path id="Path_5187" data-name="Path 5187" d="M160,96h2.294v1.147H160Zm0,0" transform="translate(-148.528 -89.117)" fill="#1e81ce"/>
      <path id="Path_5188" data-name="Path 5188" d="M224,96h2.294v1.147H224Zm0,0" transform="translate(-207.94 -89.117)" fill="#1e81ce"/>
      <path id="Path_5189" data-name="Path 5189" d="M288,96h2.294v1.147H288Zm0,0" transform="translate(-267.351 -89.117)" fill="#1e81ce"/>
    </g>
    <g id="idea" transform="translate(5.019 22.324)">
      <path id="Path_5191" data-name="Path 5191" d="M25.208,264H21.766v.574a1.147,1.147,0,0,1-1.147,1.147v1.721l1.147,7.457-2.294,2.294L17.177,274.9l1.147-7.457v-1.721a1.147,1.147,0,0,1-1.147-1.147V264H13.736A5.736,5.736,0,0,0,8,269.736v9.177H30.943v-9.177A5.736,5.736,0,0,0,25.208,264Zm0,0" transform="translate(-7.426 -260.811)" fill="#9bc9ff"/>
      <g id="Group_123" data-name="Group 123" transform="translate(0 0)">
        <path id="Path_5201" data-name="Path 5201" d="M17.781,82.172H14.913V80.014c.009-.544-5.738-.536-5.736,0v2.16H6.309A6.317,6.317,0,0,0,0,88.482v9.751H24.091V88.482A6.317,6.317,0,0,0,17.781,82.172Zm-4.015-2.158v.437H10.325v-.439c0-.643,1.775-.286,3.024-.455A.534.534,0,0,1,13.766,80.014Zm0,1.584v1.721a.574.574,0,0,1-.574.574H10.9a.574.574,0,0,1-.574-.574V81.6Zm-.037,11.845-1.684,1.684-1.684-1.684,1.028-6.683H12.7Zm-2.257-8.4h1.147v.574H11.472ZM22.943,97.085H19.5V89.629H18.355v7.457H5.736V89.629H4.589v7.457H1.147v-8.6a5.168,5.168,0,0,1,5.162-5.162H9.177a1.721,1.721,0,0,0,1.147,1.615v1.209l-1.184,7.7,2.905,2.905,2.905-2.905-1.184-7.7V84.934a1.721,1.721,0,0,0,1.147-1.615h2.868a5.168,5.168,0,0,1,5.162,5.162Zm0,0" transform="translate(0 -79.557)" fill="#1e81ce"/>
      </g>
    </g>
  </g>
</svg>
