<svg xmlns="http://www.w3.org/2000/svg" width="19.62" height="24" viewBox="0 0 19.62 24">
  <g id="business-contacts-on-spring-address-book" transform="translate(-16.121)">
    <g id="Group_128" data-name="Group 128" transform="translate(16.121)">
      <path id="Path_5216" data-name="Path 5216" d="M80.07,92.849l.435-.5a1.827,1.827,0,0,1-1.315,0l.435.5h.012l-1.122,2.714,1.334,1.331,1.334-1.331L80.06,92.849Z" transform="translate(-70.038 -79.801)" fill="#fff"/>
      <path id="Path_5217" data-name="Path 5217" d="M33,0H18.861a2.741,2.741,0,0,0-2.74,2.738V3.36h1.711a1.026,1.026,0,1,1,0,2.053H16.121V7.167h1.711a1.026,1.026,0,1,1,0,2.053H16.121v1.754h1.711a1.027,1.027,0,1,1,0,2.053H16.121v1.754h1.711a1.026,1.026,0,1,1,0,2.053H16.121v1.753h1.711a1.027,1.027,0,1,1,0,2.053H16.121v.622A2.741,2.741,0,0,0,18.861,24H33a2.741,2.741,0,0,0,2.739-2.738V2.738A2.74,2.74,0,0,0,33,0ZM21.172,15.921c0-1.324,1.527-3.113,3.583-3.635A3.505,3.505,0,0,1,23.3,9.536a2.629,2.629,0,1,1,5.257,0,3.5,3.5,0,0,1-1.454,2.75c2.058.522,3.584,2.311,3.584,3.635C30.689,17.487,21.172,17.487,21.172,15.921Z" transform="translate(-16.121)" fill="#fff"/>
    </g>
  </g>
</svg>
