<svg xmlns="http://www.w3.org/2000/svg" width="48.057" height="48" viewBox="0 0 48.057 48">
  <g id="telephone-call" transform="translate(-78.846 -82.67)">
    <path id="Path_8325" data-name="Path 8325" d="M121.016,85.33c-.037.012-.055.043-.089.058.4-.17.819-.32,1.224-.471C121.773,85.054,121.389,85.18,121.016,85.33Z" transform="translate(-7.452 -0.398)" fill="#5099ff"/>
    <g id="Group_1410" data-name="Group 1410" transform="translate(78.846 82.67)">
      <path id="Path_8324" data-name="Path 8324" d="M123,115.191c-2.841-2.733-5.718-4.452-9.16-1.9-3.463,2.563-3.83,5.407-3.83,5.407s.325,5.453-12.818-6.368C85.366,99.177,90.822,99.5,90.822,99.5s2.843-.366,5.406-3.83c2.547-3.442.75-6.245-1.9-9.161-8.493-9.332-13.641,1.273-13.641,1.273C74.669,97.9,84.693,109.933,92.425,117.1c7.167,7.732,19.19,17.746,29.306,11.734C121.73,128.833,132.468,124.3,123,115.191Z" transform="translate(-78.846 -82.67)" fill="#0d223f"/>
      <g id="Group_1409" data-name="Group 1409" transform="translate(21.137 1.649)">
        <path id="Path_8326" data-name="Path 8326" d="M238.566,173.89h0a.982.982,0,0,1-.982-.982c0-3.141-.876-5.558-2.6-7.185a10.264,10.264,0,0,0-6.89-2.374.982.982,0,0,1-.126-1.959,12.118,12.118,0,0,1,8.346,2.889c2.148,2.013,3.238,4.916,3.238,8.629A.983.983,0,0,1,238.566,173.89Z" transform="translate(-225.205 -150.824)" fill="#5099ff"/>
        <path id="Path_8327" data-name="Path 8327" d="M234.588,195.972h0a.736.736,0,0,1-.736-.736,6.207,6.207,0,0,0-1.708-4.724,6.738,6.738,0,0,0-4.529-1.56.736.736,0,0,1-.094-1.47,8.152,8.152,0,0,1,5.62,1.946,7.6,7.6,0,0,1,2.182,5.807A.736.736,0,0,1,234.588,195.972Z" transform="translate(-225.025 -172.875)" fill="#5099ff"/>
        <path id="Path_8328" data-name="Path 8328" d="M241.151,147.314h0a1.226,1.226,0,0,1-1.226-1.227c0-4.654-1.307-8.236-3.883-10.649-4.114-3.853-10.124-3.508-10.185-3.5a1.228,1.228,0,1,1-.161-2.45c.29-.017,7.141-.412,12.024,4.161,3.092,2.9,4.659,7.082,4.659,12.441A1.228,1.228,0,0,1,241.151,147.314Z" transform="translate(-223.094 -123.862)" fill="#5099ff"/>
        <path id="Path_8329" data-name="Path 8329" d="M238.582,118.212h0a1.472,1.472,0,0,1-1.472-1.472c0-6.72-1.894-11.9-5.63-15.4-5.958-5.58-14.655-5.077-14.744-5.073a1.472,1.472,0,0,1-.192-2.938c.406-.029,10.07-.582,16.949,5.862,4.353,4.078,6.561,9.983,6.56,17.549A1.471,1.471,0,0,1,238.582,118.212Z" transform="translate(-215.168 -93.305)" fill="#5099ff"/>
      </g>
    </g>
  </g>
</svg>
