<svg id="Page-1" xmlns="http://www.w3.org/2000/svg" width="37.992" height="38" viewBox="0 0 37.992 38">
  <g id="_003---Deadlines" data-name="003---Deadlines">
    <path id="Shape" d="M33.927,6.533v5.7H1v-5.7A2.533,2.533,0,0,1,3.533,4H31.394A2.533,2.533,0,0,1,33.927,6.533Z" transform="translate(-0.367 -1.467)" fill="#a4c2f7"/>
    <path id="Shape-2" data-name="Shape" d="M47.9,4H46a2.533,2.533,0,0,1,2.533,2.533v5.7h1.9v-5.7A2.533,2.533,0,0,0,47.9,4Z" transform="translate(-16.872 -1.467)" fill="#7facfa"/>
    <path id="Shape-3" data-name="Shape" d="M33.927,17v6.706A11.394,11.394,0,0,0,17.311,39.162H3.533A2.533,2.533,0,0,1,1,36.63V17Z" transform="translate(-0.367 -6.235)" fill="#e8edfc"/>
    <path id="Shape-4" data-name="Shape" d="M50,17v5.339a11.556,11.556,0,0,1,1.9,1.366V17Z" transform="translate(-18.339 -6.235)" fill="#cad9fc"/>
    <circle id="Oval" cx="11.398" cy="11.398" r="11.398" transform="translate(14.564 14.564)" fill="#a4c2f7"/>
    <path id="Shape-5" data-name="Shape" d="M40.45,23c-.321,0-.637.022-.95.048a11.388,11.388,0,0,1,0,22.7c.317.026.629.048.95.048a11.4,11.4,0,1,0,0-22.8Z" transform="translate(-14.488 -8.436)" fill="#7facfa"/>
    <circle id="Oval-2" data-name="Oval" cx="8.865" cy="8.865" r="8.865" transform="translate(17.097 17.097)" fill="#e8edfc"/>
    <path id="Shape-6" data-name="Shape" d="M40.45,27a8.878,8.878,0,0,0-.95.053,8.865,8.865,0,0,1,0,17.625A8.865,8.865,0,1,0,40.45,27Z" transform="translate(-14.488 -9.903)" fill="#cad9fc"/>
    <rect id="Rectangle-path" width="3.799" height="3.166" rx="1" transform="translate(3.166 13.297)" fill="#cad9fc"/>
    <rect id="Rectangle-path-2" data-name="Rectangle-path" width="3.799" height="3.166" rx="1" transform="translate(10.131 13.297)" fill="#cad9fc"/>
    <path id="Shape-7" data-name="Shape" d="M30.8,21.633v1.824a10.3,10.3,0,0,0-1.228.709H27.633A.633.633,0,0,1,27,23.533v-1.9A.633.633,0,0,1,27.633,21h2.533a.633.633,0,0,1,.633.633Z" transform="translate(-9.903 -7.703)" fill="#cad9fc"/>
    <rect id="Rectangle-path-3" data-name="Rectangle-path" width="3.799" height="3.166" rx="1" transform="translate(3.166 19.63)" fill="#cad9fc"/>
    <rect id="Rectangle-path-4" data-name="Rectangle-path" width="3.799" height="3.166" rx="1" transform="translate(10.131 19.63)" fill="#cad9fc"/>
    <rect id="Rectangle-path-5" data-name="Rectangle-path" width="3.799" height="3.166" rx="1" transform="translate(10.131 25.962)" fill="#cad9fc"/>
    <rect id="Rectangle-path-6" data-name="Rectangle-path" width="3.799" height="3.166" rx="1" transform="translate(3.166 25.962)" fill="#cad9fc"/>
    <path id="Shape-8" data-name="Shape" d="M39.432,4a2.989,2.989,0,0,1,1.9,2.728,3.172,3.172,0,0,1-6.332,0A2.989,2.989,0,0,1,36.9,4Z" transform="translate(-12.838 -1.467)" fill="#7facfa"/>
    <path id="Shape-9" data-name="Shape" d="M13.432,4a2.989,2.989,0,0,1,1.9,2.728A3.074,3.074,0,0,1,12.166,9.7,3.074,3.074,0,0,1,9,6.728,2.989,2.989,0,0,1,10.9,4Z" transform="translate(-3.301 -1.467)" fill="#7facfa"/>
    <rect id="Rectangle-path-7" data-name="Rectangle-path" width="2.533" height="5.066" rx="1.266" transform="translate(24.062 0.633)" fill="#e8edfc"/>
    <rect id="Rectangle-path-8" data-name="Rectangle-path" width="2.533" height="5.066" rx="1.266" transform="translate(7.599 0.633)" fill="#e8edfc"/>
    <path id="Shape-10" data-name="Shape" d="M3.533,34.394h1.9A2.533,2.533,0,0,1,2.9,31.861V6.533A2.533,2.533,0,0,1,5.432,4h-1.9A2.533,2.533,0,0,0,1,6.533V31.861A2.533,2.533,0,0,0,3.533,34.394Z" transform="translate(-0.367 -1.467)" fill="#fff"/>
    <path id="Rectangle-path-9" data-name="Rectangle-path" d="M0,40H1.266v5.066H0Z" transform="translate(0 -14.672)" fill="#fff"/>
    <g id="Group_124" data-name="Group 124">
      <path id="Shape-11" data-name="Shape" d="M.651,44.266A.633.633,0,1,1,.645,43H.651a.633.633,0,1,1,0,1.266Z" transform="translate(-0.005 -15.772)" fill="#428dff"/>
      <path id="Shape-12" data-name="Shape" d="M34.193,17.212V5.066A3.17,3.17,0,0,0,31.027,1.9h-3.8a1.9,1.9,0,1,0-3.8,0H10.765a1.9,1.9,0,1,0-3.8,0h-3.8A3.17,3.17,0,0,0,0,5.066V25.328a.633.633,0,1,0,1.266,0V11.4H32.927V16.17a11.93,11.93,0,0,0-11.4-1.383v-.857a1.266,1.266,0,0,0-1.266-1.266H17.73a1.266,1.266,0,0,0-1.266,1.266v1.9A1.266,1.266,0,0,0,17.73,17.1h.127a11.952,11.952,0,0,0-2.105,15.2H3.166a1.9,1.9,0,0,1-1.9-1.9.633.633,0,1,0-1.266,0A3.17,3.17,0,0,0,3.166,33.56H16.644A12.02,12.02,0,1,0,34.193,17.212ZM23.429,3.716v.716a1.9,1.9,0,1,0,3.8,0V3.716a2.242,2.242,0,0,1,.633,1.544,2.541,2.541,0,0,1-5.066,0,2.242,2.242,0,0,1,.633-1.544ZM24.7,1.9a.633.633,0,0,1,1.266,0V4.432a.633.633,0,1,1-1.266,0ZM6.965,3.716v.716a1.9,1.9,0,1,0,3.8,0V3.716A2.242,2.242,0,0,1,11.4,5.261,2.444,2.444,0,0,1,8.865,7.6,2.444,2.444,0,0,1,6.332,5.261a2.242,2.242,0,0,1,.633-1.544ZM8.232,1.9A.633.633,0,1,1,9.5,1.9V4.432a.633.633,0,1,1-1.266,0ZM1.266,10.131V5.066a1.9,1.9,0,0,1,1.9-1.9H5.784a3.474,3.474,0,0,0-.718,2.095,3.71,3.71,0,0,0,3.8,3.6,3.71,3.71,0,0,0,3.8-3.6,3.474,3.474,0,0,0-.718-2.095h10.3a3.474,3.474,0,0,0-.718,2.095,3.8,3.8,0,0,0,7.6,0,3.474,3.474,0,0,0-.718-2.095h2.618a1.9,1.9,0,0,1,1.9,1.9v5.066Zm16.463,5.7v-1.9h2.533V15.37c-.262.142-.514.3-.764.46Zm8.232,20.9A10.765,10.765,0,1,1,36.726,25.962,10.765,10.765,0,0,1,25.962,36.726Z" fill="#428dff"/>
      <path id="Shape-13" data-name="Shape" d="M35.5,26A9.5,9.5,0,1,0,45,35.5,9.5,9.5,0,0,0,35.5,26Zm4.65,16.285-.3-.523a.633.633,0,1,0-1.1.633l.3.519a8.144,8.144,0,0,1-2.917.784v-.6a.633.633,0,1,0-1.266,0v.6a8.144,8.144,0,0,1-2.917-.784l.3-.519a.633.633,0,1,0-1.1-.633l-.3.523a8.322,8.322,0,0,1-2.137-2.137l.523-.3a.633.633,0,0,0-.633-1.1l-.519.3a8.144,8.144,0,0,1-.784-2.917h.6a.633.633,0,0,0,0-1.266h-.6a8.144,8.144,0,0,1,.784-2.917l.519.3a.633.633,0,1,0,.633-1.1l-.523-.3a8.322,8.322,0,0,1,2.137-2.137l.3.523a.633.633,0,0,0,1.1-.633l-.3-.519a8.144,8.144,0,0,1,2.917-.784v.6a.633.633,0,1,0,1.266,0v-.6a8.144,8.144,0,0,1,2.917.784l-.3.519a.633.633,0,1,0,1.1.633l.3-.523a8.322,8.322,0,0,1,2.137,2.137l-.523.3a.633.633,0,1,0,.633,1.1l.519-.3a8.144,8.144,0,0,1,.784,2.917h-.6a.633.633,0,1,0,0,1.266h.6a8.144,8.144,0,0,1-.784,2.917l-.519-.3a.633.633,0,1,0-.633,1.1l.523.3a8.322,8.322,0,0,1-2.137,2.137Z" transform="translate(-9.537 -9.537)" fill="#428dff"/>
      <path id="Shape-14" data-name="Shape" d="M41.384,37.925l1.731-4.038a.633.633,0,0,0-1.164-.5l-1.9,4.432a.633.633,0,0,0,.134.7l2.533,2.533a.633.633,0,0,0,.9-.9Z" transform="translate(-14.672 -12.109)" fill="#428dff"/>
      <path id="Shape-15" data-name="Shape" d="M5.266,24.432H7.8a1.266,1.266,0,0,0,1.266-1.266v-1.9A1.266,1.266,0,0,0,7.8,20H5.266A1.266,1.266,0,0,0,4,21.266v1.9A1.266,1.266,0,0,0,5.266,24.432Zm0-3.166H7.8v1.9H5.266Z" transform="translate(-1.467 -7.336)" fill="#428dff"/>
      <path id="Shape-16" data-name="Shape" d="M16.266,24.432H18.8a1.266,1.266,0,0,0,1.266-1.266v-1.9A1.266,1.266,0,0,0,18.8,20H16.266A1.266,1.266,0,0,0,15,21.266v1.9A1.266,1.266,0,0,0,16.266,24.432Zm0-3.166H18.8v1.9H16.266Z" transform="translate(-5.502 -7.336)" fill="#428dff"/>
      <path id="Shape-17" data-name="Shape" d="M4,33.166a1.266,1.266,0,0,0,1.266,1.266H7.8a1.266,1.266,0,0,0,1.266-1.266v-1.9A1.266,1.266,0,0,0,7.8,30H5.266A1.266,1.266,0,0,0,4,31.266Zm1.266-1.9H7.8v1.9H5.266Z" transform="translate(-1.467 -11.004)" fill="#428dff"/>
      <path id="Shape-18" data-name="Shape" d="M15,33.166a1.266,1.266,0,0,0,1.266,1.266h1.266a.633.633,0,1,0,0-1.266H16.266v-1.9H18.8A.633.633,0,0,0,18.8,30H16.266A1.266,1.266,0,0,0,15,31.266Z" transform="translate(-5.502 -11.004)" fill="#428dff"/>
      <path id="Shape-19" data-name="Shape" d="M4,43.166a1.266,1.266,0,0,0,1.266,1.266H7.8a1.266,1.266,0,0,0,1.266-1.266v-1.9A1.266,1.266,0,0,0,7.8,40H5.266A1.266,1.266,0,0,0,4,41.266Zm1.266-1.9H7.8v1.9H5.266Z" transform="translate(-1.467 -14.672)" fill="#428dff"/>
      <path id="Shape-20" data-name="Shape" d="M15,43.166a1.266,1.266,0,0,0,1.266,1.266h1.9a.633.633,0,1,0,0-1.266h-1.9v-1.9h1.266a.633.633,0,1,0,0-1.266H16.266A1.266,1.266,0,0,0,15,41.266Z" transform="translate(-5.502 -14.672)" fill="#428dff"/>
    </g>
  </g>
</svg>
