<svg xmlns="http://www.w3.org/2000/svg" width="71.292" height="60" viewBox="0 0 71.292 60">
  <g id="Group_506" data-name="Group 506" transform="translate(-718.948 -1187.833)">
    <g id="Group_505" data-name="Group 505" transform="translate(718.948 1187.833)">
      <g id="Group_473" data-name="Group 473" transform="translate(4.568 8.571)">
        <path id="Path_5254" data-name="Path 5254" d="M771.166,1242.778c0,11.636-9.432,14.334-21.077,14.334s-21.077-2.7-21.077-14.334c0-5.606,2.2-12.27,5.783-17.674l10.26-18.388H755.1l10.081,18.024c.1.172.2.339.308.5C769.02,1230.621,771.166,1237.221,771.166,1242.778Z" transform="translate(-729.012 -1206.715)" fill="#fff"/>
      </g>
      <g id="Group_474" data-name="Group 474" transform="translate(8.094 8.456)">
        <path id="Path_5255" data-name="Path 5255" d="M771.882,1242.639c0,5.615-2.125,10.808-17.551,10.808s-17.551-5.193-17.551-10.808c0-4.875,1.992-10.9,5.192-15.726l.079-.114,9.318-16.7,1.807-3.526,2.241-.115,1.674,3.143a9.132,9.132,0,0,0,.433.959l8.813,15.759.459.751C769.932,1231.855,771.882,1237.818,771.882,1242.639Z" transform="translate(-736.78 -1206.461)" fill="#e8edfc"/>
      </g>
      <g id="Group_476" data-name="Group 476" transform="translate(19.476 28.846)">
        <g id="Group_475" data-name="Group 475">
          <path id="Path_5256" data-name="Path 5256" d="M774.193,1264.7a4.192,4.192,0,0,1-1.566,3.393,5.749,5.749,0,0,1-3.18,1.246v2.1h-2.859v-2.231a9.9,9.9,0,0,1-4.734-2.551l2.065-2.527a7.388,7.388,0,0,0,4.65,2.2,2.334,2.334,0,0,0,1.495-.415,1.383,1.383,0,0,0-.024-2.219,7.783,7.783,0,0,0-2.29-.83,9.781,9.781,0,0,1-3.974-1.685,3.973,3.973,0,0,1-1.258-3.239,4.055,4.055,0,0,1,1.59-3.417,5.791,5.791,0,0,1,2.48-1.068v-2.076h2.859v2.053a9.366,9.366,0,0,1,1.744.427,8.637,8.637,0,0,1,2.717,1.507l-1.756,2.539a6.887,6.887,0,0,0-4.188-1.531,2.1,2.1,0,0,0-1.365.4,1.363,1.363,0,0,0-.5,1.091,1.231,1.231,0,0,0,.605,1.08,11.266,11.266,0,0,0,2.824.949,7.764,7.764,0,0,1,3.441,1.637A4,4,0,0,1,774.193,1264.7Z" transform="translate(-761.854 -1251.381)" fill="#2d9de0"/>
        </g>
      </g>
      <g id="Group_481" data-name="Group 481" transform="translate(16.005 16.486)">
        <g id="Group_478" data-name="Group 478" transform="translate(0 3.529)">
          <g id="Group_477" data-name="Group 477">
            <path id="Path_5257" data-name="Path 5257" d="M759.813,1233.295l-3.87,7.042a.924.924,0,1,1-1.62-.89l3.87-7.042a.924.924,0,0,1,1.62.89Z" transform="translate(-754.208 -1231.927)" fill="#fff"/>
          </g>
        </g>
        <g id="Group_480" data-name="Group 480" transform="translate(5.232)">
          <g id="Group_479" data-name="Group 479">
            <path id="Path_5258" data-name="Path 5258" d="M766.215,1226.944a.924.924,0,0,1-.365-1.255l.58-1.056a.924.924,0,1,1,1.62.89l-.58,1.056A.925.925,0,0,1,766.215,1226.944Z" transform="translate(-765.736 -1224.153)" fill="#fff"/>
          </g>
        </g>
      </g>
      <g id="Group_482" data-name="Group 482" transform="translate(0 57.838)">
        <path id="Path_5259" data-name="Path 5259" d="M789.207,1317.318H719.981a1.033,1.033,0,1,1,0-2.065h69.227a1.033,1.033,0,1,1,0,2.065Z" transform="translate(-718.948 -1315.253)" fill="#2d9de0"/>
      </g>
      <g id="Group_483" data-name="Group 483" transform="translate(3.536 7.538)">
        <path id="Path_5260" data-name="Path 5260" d="M748.846,1256.9c-9.491,0-22.11-1.593-22.11-15.367,0-5.8,2.217-12.6,5.933-18.213l10.537-18.883h11.252l10.377,18.553c.084.151.175.3.27.442,3.663,5.574,5.851,12.34,5.851,18.1C770.956,1255.309,758.338,1256.9,748.846,1256.9Zm-4.427-50.4-10.007,17.927c-3.513,5.291-5.611,11.685-5.611,17.1,0,9.2,6.182,13.3,20.045,13.3s20.045-4.1,20.045-13.3a32.524,32.524,0,0,0-5.511-16.967c-.122-.185-.237-.373-.345-.566l-9.786-17.5Z" transform="translate(-726.737 -1204.44)" fill="#2d9de0"/>
      </g>
      <g id="Group_484" data-name="Group 484" transform="translate(14.171 1.033)">
        <path id="Path_5261" data-name="Path 5261" d="M770.943,1190.108H751.42a1.25,1.25,0,0,0-.831,2.184l6.019,5.354h9.907l5.319-5.412A1.25,1.25,0,0,0,770.943,1190.108Z" transform="translate(-750.168 -1190.108)" fill="#e8edfc"/>
      </g>
      <g id="Group_485" data-name="Group 485" transform="translate(13.138)">
        <path id="Path_5262" data-name="Path 5262" d="M765.705,1197.437H754.973l-6.312-5.615a2.283,2.283,0,0,1,1.517-3.988H769.7a2.283,2.283,0,0,1,1.628,3.883Zm-9.947-2.065h9.081l5.015-5.1a.217.217,0,0,0-.155-.37H750.178a.218.218,0,0,0-.144.38Z" transform="translate(-747.893 -1187.833)" fill="#2d9de0"/>
      </g>
      <g id="Group_486" data-name="Group 486" transform="translate(15.805 7.538)">
        <path id="Path_5263" data-name="Path 5263" d="M782.469,1217.712a1.033,1.033,0,0,1-1.006-.8c-.024-.1-2.449-10.4-8.908-10.4H754.8a1.033,1.033,0,1,1,0-2.065h17.755c8.106,0,10.811,11.521,10.922,12.011a1.033,1.033,0,0,1-.778,1.235A1.022,1.022,0,0,1,782.469,1217.712Z" transform="translate(-753.767 -1204.44)" fill="#2d9de0"/>
      </g>
      <g id="Group_487" data-name="Group 487" transform="translate(33.561 7.538)">
        <path id="Path_5264" data-name="Path 5264" d="M805.659,1211.4a1.029,1.029,0,0,1-.793-.372c-2.271-2.725-6.571-4.5-10.954-4.518a1.033,1.033,0,0,1-1.028-1.037,1.054,1.054,0,0,1,1.037-1.028c4.967.022,9.886,2.087,12.531,5.262a1.032,1.032,0,0,1-.792,1.693Z" transform="translate(-792.883 -1204.44)" fill="#2d9de0"/>
      </g>
      <g id="Group_504" data-name="Group 504" transform="translate(38.905 26.07)">
        <g id="Group_488" data-name="Group 488" transform="translate(10.472 26.345)">
          <rect id="Rectangle_80" data-name="Rectangle 80" width="12.798" height="6.328" rx="3.164" fill="#fff"/>
        </g>
        <g id="Group_489" data-name="Group 489" transform="translate(9.439 25.312)">
          <path id="Path_5265" data-name="Path 5265" d="M837.05,1309.422h-8.335a3.268,3.268,0,0,1-3.264-3.264v-1.865a3.267,3.267,0,0,1,3.264-3.264h8.335a3.267,3.267,0,0,1,3.264,3.264v1.865A3.268,3.268,0,0,1,837.05,1309.422Zm-8.335-6.328a1.2,1.2,0,0,0-1.2,1.2v1.865a1.2,1.2,0,0,0,1.2,1.2h8.335a1.2,1.2,0,0,0,1.2-1.2v-1.865a1.2,1.2,0,0,0-1.2-1.2Z" transform="translate(-825.451 -1301.029)" fill="#2d9de0"/>
        </g>
        <g id="Group_490" data-name="Group 490" transform="translate(10.472 20.017)">
          <rect id="Rectangle_81" data-name="Rectangle 81" width="12.798" height="6.328" rx="3.164" fill="#c2e6fd"/>
        </g>
        <g id="Group_491" data-name="Group 491" transform="translate(9.439 18.984)">
          <path id="Path_5266" data-name="Path 5266" d="M837.05,1295.481h-8.335a3.267,3.267,0,0,1-3.264-3.264v-1.866a3.267,3.267,0,0,1,3.264-3.264h8.335a3.267,3.267,0,0,1,3.264,3.264v1.866A3.267,3.267,0,0,1,837.05,1295.481Zm-8.335-6.328a1.2,1.2,0,0,0-1.2,1.2v1.866a1.2,1.2,0,0,0,1.2,1.2h8.335a1.2,1.2,0,0,0,1.2-1.2v-1.866a1.2,1.2,0,0,0-1.2-1.2Z" transform="translate(-825.451 -1287.088)" fill="#2d9de0"/>
        </g>
        <g id="Group_492" data-name="Group 492" transform="translate(10.472 13.689)">
          <rect id="Rectangle_82" data-name="Rectangle 82" width="12.798" height="6.328" rx="3.164" fill="#fff"/>
        </g>
        <g id="Group_493" data-name="Group 493" transform="translate(9.439 12.656)">
          <path id="Path_5267" data-name="Path 5267" d="M837.05,1281.54h-8.335a3.268,3.268,0,0,1-3.264-3.264v-1.865a3.268,3.268,0,0,1,3.264-3.264h8.335a3.268,3.268,0,0,1,3.264,3.264v1.865A3.268,3.268,0,0,1,837.05,1281.54Zm-8.335-6.328a1.2,1.2,0,0,0-1.2,1.2v1.865a1.2,1.2,0,0,0,1.2,1.2h8.335a1.2,1.2,0,0,0,1.2-1.2v-1.865a1.2,1.2,0,0,0-1.2-1.2Z" transform="translate(-825.451 -1273.147)" fill="#2d9de0"/>
        </g>
        <g id="Group_494" data-name="Group 494" transform="translate(1.032 26.345)">
          <rect id="Rectangle_83" data-name="Rectangle 83" width="12.798" height="6.328" rx="3.164" fill="#e8edfc"/>
        </g>
        <g id="Group_495" data-name="Group 495" transform="translate(0 25.312)">
          <path id="Path_5268" data-name="Path 5268" d="M816.255,1309.422H807.92a3.268,3.268,0,0,1-3.264-3.264v-1.865a3.267,3.267,0,0,1,3.264-3.264h8.335a3.268,3.268,0,0,1,3.264,3.264v1.865A3.268,3.268,0,0,1,816.255,1309.422Zm-8.335-6.328a1.2,1.2,0,0,0-1.2,1.2v1.865a1.2,1.2,0,0,0,1.2,1.2h8.335a1.2,1.2,0,0,0,1.2-1.2v-1.865a1.2,1.2,0,0,0-1.2-1.2Z" transform="translate(-804.656 -1301.029)" fill="#2d9de0"/>
        </g>
        <g id="Group_496" data-name="Group 496" transform="translate(1.032 20.017)">
          <rect id="Rectangle_84" data-name="Rectangle 84" width="12.798" height="6.328" rx="3.164" fill="#fff"/>
        </g>
        <g id="Group_497" data-name="Group 497" transform="translate(0 18.984)">
          <path id="Path_5269" data-name="Path 5269" d="M816.255,1295.481H807.92a3.267,3.267,0,0,1-3.264-3.264v-1.866a3.267,3.267,0,0,1,3.264-3.264h8.335a3.268,3.268,0,0,1,3.264,3.264v1.866A3.268,3.268,0,0,1,816.255,1295.481Zm-8.335-6.328a1.2,1.2,0,0,0-1.2,1.2v1.866a1.2,1.2,0,0,0,1.2,1.2h8.335a1.2,1.2,0,0,0,1.2-1.2v-1.866a1.2,1.2,0,0,0-1.2-1.2Z" transform="translate(-804.656 -1287.088)" fill="#2d9de0"/>
        </g>
        <g id="Group_498" data-name="Group 498" transform="translate(1.032 13.689)">
          <rect id="Rectangle_85" data-name="Rectangle 85" width="12.798" height="6.328" rx="3.164" fill="#e8edfc"/>
        </g>
        <g id="Group_499" data-name="Group 499" transform="translate(0 12.656)">
          <path id="Path_5270" data-name="Path 5270" d="M816.255,1281.54H807.92a3.268,3.268,0,0,1-3.264-3.264v-1.865a3.268,3.268,0,0,1,3.264-3.264h8.335a3.268,3.268,0,0,1,3.264,3.264v1.865A3.268,3.268,0,0,1,816.255,1281.54Zm-8.335-6.328a1.2,1.2,0,0,0-1.2,1.2v1.865a1.2,1.2,0,0,0,1.2,1.2h8.335a1.2,1.2,0,0,0,1.2-1.2v-1.865a1.2,1.2,0,0,0-1.2-1.2Z" transform="translate(-804.656 -1273.147)" fill="#2d9de0"/>
        </g>
        <g id="Group_500" data-name="Group 500" transform="translate(1.032 7.361)">
          <rect id="Rectangle_86" data-name="Rectangle 86" width="12.798" height="6.328" rx="3.164" fill="#fff"/>
        </g>
        <g id="Group_501" data-name="Group 501" transform="translate(0 6.328)">
          <path id="Path_5271" data-name="Path 5271" d="M816.255,1267.6H807.92a3.268,3.268,0,0,1-3.264-3.264v-1.865a3.268,3.268,0,0,1,3.264-3.264h8.335a3.268,3.268,0,0,1,3.264,3.264v1.865A3.268,3.268,0,0,1,816.255,1267.6Zm-8.335-6.328a1.2,1.2,0,0,0-1.2,1.2v1.865a1.2,1.2,0,0,0,1.2,1.2h8.335a1.2,1.2,0,0,0,1.2-1.2v-1.865a1.2,1.2,0,0,0-1.2-1.2Z" transform="translate(-804.656 -1259.206)" fill="#2d9de0"/>
        </g>
        <g id="Group_502" data-name="Group 502" transform="translate(1.032 1.033)">
          <rect id="Rectangle_87" data-name="Rectangle 87" width="12.798" height="6.328" rx="3.164" fill="#e8edfc"/>
        </g>
        <g id="Group_503" data-name="Group 503">
          <path id="Path_5272" data-name="Path 5272" d="M816.255,1253.658H807.92a3.268,3.268,0,0,1-3.264-3.264v-1.865a3.268,3.268,0,0,1,3.264-3.264h8.335a3.268,3.268,0,0,1,3.264,3.264v1.865A3.268,3.268,0,0,1,816.255,1253.658Zm-8.335-6.328a1.2,1.2,0,0,0-1.2,1.2v1.865a1.2,1.2,0,0,0,1.2,1.2h8.335a1.2,1.2,0,0,0,1.2-1.2v-1.865a1.2,1.2,0,0,0-1.2-1.2Z" transform="translate(-804.656 -1245.265)" fill="#2d9de0"/>
        </g>
      </g>
    </g>
  </g>
</svg>
