<svg xmlns="http://www.w3.org/2000/svg" width="36.563" height="48" viewBox="0 0 36.563 48">
  <g id="agreement" transform="translate(-61)">
    <path id="Path_8337" data-name="Path 8337" d="M179.125,92.406A1.405,1.405,0,0,0,177.719,91H173.5v29.531a4.224,4.224,0,0,1-4.219,4.219H151v4.313a1.405,1.405,0,0,0,1.406,1.406h25.313a1.405,1.405,0,0,0,1.406-1.406Z" transform="translate(-81.563 -82.469)" fill="#5099ff"/>
    <circle id="Ellipse_40" data-name="Ellipse 40" cx="1.406" cy="1.406" r="1.406" transform="translate(79.281 29.625)"/>
    <path id="Path_8338" data-name="Path 8338" d="M89.125,38.063V1.406A1.405,1.405,0,0,0,87.719,0H62.406A1.405,1.405,0,0,0,61,1.406V38.063a1.405,1.405,0,0,0,1.406,1.406H87.719A1.405,1.405,0,0,0,89.125,38.063ZM72.25,29.625H66.625a1.406,1.406,0,0,1,0-2.812H72.25a1.406,1.406,0,0,1,0,2.813Zm8.438,5.625a4.219,4.219,0,1,1,4.219-4.219A4.223,4.223,0,0,1,80.688,35.25ZM83.5,24H66.625a1.406,1.406,0,0,1,0-2.812H83.5A1.406,1.406,0,0,1,83.5,24Zm0-5.625H66.625a1.406,1.406,0,0,1,0-2.812H83.5a1.406,1.406,0,0,1,0,2.813ZM70.844,11.344A1.405,1.405,0,0,1,72.25,9.938h5.625a1.406,1.406,0,0,1,0,2.813H72.25A1.405,1.405,0,0,1,70.844,11.344ZM83.5,7.125H66.625a1.406,1.406,0,0,1,0-2.812H83.5a1.406,1.406,0,0,1,0,2.813Z" fill="#0d223f"/>
  </g>
</svg>
