<svg id="globe_2_" data-name="globe (2)" xmlns="http://www.w3.org/2000/svg" width="24" height="24" viewBox="0 0 24 24">
  <path id="Path_5213" data-name="Path 5213" d="M125.078,24.534a.8.8,0,0,1-.516-.189,15.458,15.458,0,0,1-5.1-11.784,15.458,15.458,0,0,1,5.1-11.784A.8.8,0,1,1,125.594,2a13.846,13.846,0,0,0-4.528,10.561,13.846,13.846,0,0,0,4.529,10.562.8.8,0,0,1-.516,1.411Zm0,0" transform="translate(-113.865 -0.561)" fill="#fff"/>
  <path id="Path_5214" data-name="Path 5214" d="M256.8,24.534a.8.8,0,0,1-.516-1.411,13.845,13.845,0,0,0,4.529-10.562A13.846,13.846,0,0,0,256.284,2,.8.8,0,0,1,257.316.777a15.458,15.458,0,0,1,5.1,11.784,15.459,15.459,0,0,1-5.1,11.784A.8.8,0,0,1,256.8,24.534Zm0,0" transform="translate(-244 -0.561)" fill="#fff"/>
  <path id="Path_5215" data-name="Path 5215" d="M12,0A11.982,11.982,0,0,0,3.974,20.9c.008.01.01.023.019.033a.715.715,0,0,0,.089.065A11.993,11.993,0,1,0,12,0Zm6.379,3.8A10.416,10.416,0,0,1,12,6,10.381,10.381,0,0,1,5.623,3.8a10.334,10.334,0,0,1,12.756,0ZM4.428,4.893A11.979,11.979,0,0,0,12,7.6a12.021,12.021,0,0,0,7.579-2.7,10.35,10.35,0,0,1,2.781,6.3H1.64A10.351,10.351,0,0,1,4.428,4.893Zm1.453,15.5a10.378,10.378,0,0,1,12.231,0,10.323,10.323,0,0,1-12.231,0Zm13.482-1.055a11.954,11.954,0,0,0-14.726,0,10.366,10.366,0,0,1-3-6.537H22.359a10.366,10.366,0,0,1-3,6.536Zm0,0" fill="#fff"/>
</svg>
