<svg xmlns="http://www.w3.org/2000/svg" width="27.088" height="24" viewBox="0 0 27.088 24">
  <g id="home-page" transform="translate(0 -1.54)">
    <path id="Path_5210" data-name="Path 5210" d="M3.674,24.923a.563.563,0,0,0,.567.606l6.828-.008.01-5.595s-.1-.922.8-.922h2.833a.878.878,0,0,1,.993.922L15.693,25.5h6.684a.7.7,0,0,0,.717-.754V14.434l-9.42-8.379-10,8.379S3.674,24.923,3.674,24.923Z" transform="translate(0.009 0.011)" fill="#fff"/>
    <path id="Path_5211" data-name="Path 5211" d="M0,13.665s.849,1.565,2.7,0L13.766,4.3l10.375,9.3c2.143,1.546,2.946,0,2.946,0L13.766,1.54Z" transform="translate(0 0)" fill="#fff"/>
    <path id="Path_5212" data-name="Path 5212" d="M23.837,4.275H21.168l.011,3.236,2.658,2.255Z" transform="translate(0.053 0.007)" fill="#fff"/>
  </g>
</svg>
