<svg xmlns="http://www.w3.org/2000/svg" width="60" height="60" viewBox="0 0 60 60">
  <g id="Group_595" data-name="Group 595" transform="translate(-568 -1377)">
    <g id="leadership" transform="translate(586.971 1368.999)">
      <g id="Group_469" data-name="Group 469" transform="translate(0.775 25.747)">
        <path id="Path_5240" data-name="Path 5240" d="M29.469,235.09V237H8.562V235.09a3.315,3.315,0,0,1,1.613-2.845l3.211-1.919,1.03-.62,1.038-.62a.47.47,0,0,0,.231-.336.252.252,0,0,0,.007-.075V227.2a.46.46,0,0,0-.1-.276,7.11,7.11,0,0,1-1.269-2.7,1.77,1.77,0,0,0-.485-.926h-.007a1.8,1.8,0,0,1-.523-1.262v-1.68a1.753,1.753,0,0,1,.194-.8l.1-.194a1.846,1.846,0,0,0,.187-.8v-2.419a3.8,3.8,0,0,1,3.8-3.793h2.852a3.8,3.8,0,0,1,3.8,3.793v2.419a1.846,1.846,0,0,0,.187.8l.1.194a1.753,1.753,0,0,1,.194.8v1.68a1.8,1.8,0,0,1-.523,1.262H24.19a1.771,1.771,0,0,0-.485.926,7.107,7.107,0,0,1-1.269,2.7.46.46,0,0,0-.1.276v1.471a.208.208,0,0,0,.007.067.462.462,0,0,0,.231.343l2.009,1.2,3.27,1.956A3.315,3.315,0,0,1,29.469,235.09Z" transform="translate(-8.562 -212.361)" fill="#a4c2f7"/>
        <path id="Path_5241" data-name="Path 5241" d="M27.229,235.09V237H8.562V235.09a3.315,3.315,0,0,1,1.613-2.845l3.211-1.919,1.03-.62,1.038-.62a.47.47,0,0,0,.231-.336.252.252,0,0,0,.007-.075V227.2a.46.46,0,0,0-.1-.276,7.11,7.11,0,0,1-1.269-2.7,1.77,1.77,0,0,0-.485-.926h-.007a1.8,1.8,0,0,1-.523-1.262v-1.68a1.753,1.753,0,0,1,.194-.8l.1-.194a1.846,1.846,0,0,0,.187-.8v-2.419a3.8,3.8,0,0,1,3.8-3.793H18.2a3.8,3.8,0,0,1,3.8,3.793v2.419a1.846,1.846,0,0,0,.187.8l.1.194a1.753,1.753,0,0,1,.194.8v1.68a1.8,1.8,0,0,1-.523,1.262H21.95a1.771,1.771,0,0,0-.485.926,7.107,7.107,0,0,1-1.269,2.7.46.46,0,0,0-.1.276v1.471a.207.207,0,0,0,.007.067.462.462,0,0,0,.231.343l2.009,1.2,3.27,1.956A3.315,3.315,0,0,1,27.229,235.09Z" transform="translate(-8.562 -212.361)" fill="#d4e1f4"/>
        <path id="Path_5242" data-name="Path 5242" d="M29.465,410.078v2.092H8.558v-2.092a3.709,3.709,0,0,1,1.613-3.113l3.211-2.1,1.03-.678,1.038-.678,2.412,1.365,1.105.621,2.389-1.316,1.217-.67,2.009,1.316,3.27,2.141A3.71,3.71,0,0,1,29.465,410.078Z" transform="translate(-8.558 -386.782)" fill="#a4c2f7"/>
        <path id="Path_5243" data-name="Path 5243" d="M27.225,417.065v2.092H8.558v-2.092a3.709,3.709,0,0,1,1.613-3.113l3.211-2.1,1.03-.678,2.315,1.307,1.135-.621,1.105.621,2.389-1.316.986.646,3.27,2.141A3.71,3.71,0,0,1,27.225,417.065Z" transform="translate(-8.558 -393.769)" fill="#e3e7f2"/>
        <g id="Group_467" data-name="Group 467" transform="translate(4.824 16.382)">
          <path id="Path_5244" data-name="Path 5244" d="M133.131,401.13l-.09.142-2.24,1.762a1.537,1.537,0,0,1-1.478.231,1.334,1.334,0,0,1-.53-.314l-1.277-1.21,2.987-2.113.388-.045a.462.462,0,0,0,.231.343Z" transform="translate(-121.931 -399.584)" fill="#fff"/>
          <path id="Path_5245" data-name="Path 5245" d="M69.272,401.819,68,403.029a1.333,1.333,0,0,1-.53.314,1.537,1.537,0,0,1-1.478-.231l-2.24-1.762-.06-.1L65.755,400a.47.47,0,0,0,.231-.336l.3.037Z" transform="translate(-63.687 -399.662)" fill="#fff"/>
        </g>
        <g id="Group_468" data-name="Group 468" transform="translate(8.251 18.54)">
          <path id="Path_5246" data-name="Path 5246" d="M110.48,425.768l-1.06,1.59h-1.493l-1.06-1.59a1.334,1.334,0,0,0,.53-.314l1.277-1.21,1.277,1.21A1.334,1.334,0,0,0,110.48,425.768Z" transform="translate(-106.515 -424.245)" fill="#e3e7f2"/>
          <path id="Path_5247" data-name="Path 5247" d="M107.171,463.357v.205h-4.316v-.205l1.411-3.528h1.493Z" transform="translate(-102.855 -456.715)" fill="#e3e7f2"/>
        </g>
      </g>
      <path id="Path_5249" data-name="Path 5249" d="M10.8,239V237.09a3.315,3.315,0,0,1,1.613-2.845l3.211-1.919,1.03-.62,1.038-.62a.47.47,0,0,0,.231-.336.253.253,0,0,0,.007-.075V229.2a.46.46,0,0,0-.1-.276,7.11,7.11,0,0,1-1.269-2.7,1.77,1.77,0,0,0-.485-.926h-.007a1.8,1.8,0,0,1-.523-1.262v-1.68a1.753,1.753,0,0,1,.194-.8l.1-.194a1.846,1.846,0,0,0,.187-.8v-2.419a3.8,3.8,0,0,1,3.8-3.793h-2.24a3.8,3.8,0,0,0-3.8,3.793v2.419a1.846,1.846,0,0,1-.187.8l-.1.194a1.753,1.753,0,0,0-.194.8v1.68a1.8,1.8,0,0,0,.523,1.262h.007a1.771,1.771,0,0,1,.485.926,7.107,7.107,0,0,0,1.269,2.7.46.46,0,0,1,.1.276v1.471a.255.255,0,0,1-.007.075.47.47,0,0,1-.231.336l-1.038.62-1.03.62-3.211,1.919a3.315,3.315,0,0,0-1.613,2.845v2.658H10.8Z" transform="translate(-7.786 -188.614)" fill="#fff"/>
      <g id="Group_471" data-name="Group 471" transform="translate(0.029 25.001)">
        <g id="Group_470" data-name="Group 470" transform="translate(0)">
          <path id="Path_5253" data-name="Path 5253" d="M1.522,232.708H20.936a1.5,1.5,0,0,0,1.493-1.493V229.3a4.087,4.087,0,0,0-1.979-3.484L15.3,222.734v-1.227a7.7,7.7,0,0,0,1.346-2.911,1.067,1.067,0,0,1,.287-.546,2.506,2.506,0,0,0,.743-1.788v-1.685a2.531,2.531,0,0,0-.268-1.131l-.1-.195a1.039,1.039,0,0,1-.11-.463v-2.412a4.553,4.553,0,0,0-4.548-4.548H9.793a4.543,4.543,0,0,0-4.538,4.538v2.422a1.043,1.043,0,0,1-.109.462l-.1.2a2.536,2.536,0,0,0-.268,1.131v1.685a2.508,2.508,0,0,0,.743,1.789,1.061,1.061,0,0,1,.287.547,7.718,7.718,0,0,0,1.346,2.909v1.227l-5.149,3.084A4.085,4.085,0,0,0,.029,229.3v1.914A1.5,1.5,0,0,0,1.522,232.708Zm9.662-6.565.76.719-.413.619h-.694l-.412-.619Zm-.236,2.832h.482l.923,2.24H10.079Zm9.987.326v1.914H13.969l-1.2-2.9.561-.842c.06,0,.12.017.18.017a2.266,2.266,0,0,0,1.416-.493l1.978-1.556,2.774,1.661A2.552,2.552,0,0,1,20.936,229.3Zm-5.4-4.685L14,225.823a.8.8,0,0,1-1.029-.04l-.616-.584,1.92-1.358a1.163,1.163,0,0,0,.126.1Zm-8.96-7.624a1.026,1.026,0,0,1-.3-.731v-1.685a1.041,1.041,0,0,1,.109-.462l.1-.2a2.546,2.546,0,0,0,.267-1.131v-2.422a3.048,3.048,0,0,1,3.044-3.044h2.861a3.058,3.058,0,0,1,3.055,3.055v2.412a2.541,2.541,0,0,0,.268,1.132l.1.2a1.036,1.036,0,0,1,.109.462v1.685a1.027,1.027,0,0,1-.3.731,2.552,2.552,0,0,0-.7,1.305,6.33,6.33,0,0,1-1.14,2.4,1.232,1.232,0,0,0-.236.718v.946a.719.719,0,0,0-.069.03L11.184,224.2,8.65,222.407v-.991a1.231,1.231,0,0,0-.236-.718,6.337,6.337,0,0,1-1.139-2.4A2.554,2.554,0,0,0,6.578,216.993Zm1.466,6.951c.034-.02.061-.048.092-.071L10.01,225.2l-.615.583a.8.8,0,0,1-1.034.037L6.87,224.647ZM1.522,229.3a2.55,2.55,0,0,1,1.252-2.2L5.5,225.468l1.935,1.521a2.274,2.274,0,0,0,1.422.5c.06,0,.119-.012.179-.016l.567.851-1.123,2.895H1.522Z" transform="translate(-0.029 -205.828)" fill="#428dff"/>
        </g>
      </g>
    </g>
    <g id="Group_594" data-name="Group 594" transform="translate(496.559 -13.175)">
      <g id="Group_571" data-name="Group 571" transform="translate(78.08 1396.782)">
        <path id="Path_5340" data-name="Path 5340" d="M112.385,1454.419a23.385,23.385,0,1,1,23.385-23.385A23.412,23.412,0,0,1,112.385,1454.419Zm0-45.116a21.731,21.731,0,1,0,21.731,21.731A21.756,21.756,0,0,0,112.385,1409.3Z" transform="translate(-88.999 -1407.648)" fill="#c2e6fd"/>
      </g>
      <g id="Group_578" data-name="Group 578" transform="translate(76.609 1390.175)">
        <g id="Group_576" data-name="Group 576" transform="translate(0 5.021)">
          <path id="Path_5346" data-name="Path 5346" d="M85.935,1426.056a.827.827,0,0,1-.821-.935,25.105,25.105,0,0,1,22.968-21.664.827.827,0,1,1,.121,1.65,23.445,23.445,0,0,0-21.449,20.23A.827.827,0,0,1,85.935,1426.056Z" transform="translate(-85.107 -1403.454)" fill="#2d9de0"/>
        </g>
        <g id="Group_577" data-name="Group 577" transform="translate(15.787)">
          <path id="Path_5347" data-name="Path 5347" d="M129.545,1403.595l-1.274-1.058,5.219-6.268-6.634-4.749.965-1.345,8.078,5.784Z" transform="translate(-126.857 -1390.175)" fill="#2d9de0"/>
        </g>
      </g>
      <g id="Group_581" data-name="Group 581" transform="translate(71.441 1420.17)">
        <g id="Group_579" data-name="Group 579" transform="translate(5.023 0.967)">
          <path id="Path_5348" data-name="Path 5348" d="M106.135,1495.868a.793.793,0,0,1-.122-.009,25.174,25.174,0,0,1-21.284-22.916.827.827,0,1,1,1.65-.12,23.509,23.509,0,0,0,19.876,21.4.827.827,0,0,1-.12,1.645Z" transform="translate(-84.726 -1472.056)" fill="#2d9de0"/>
        </g>
        <g id="Group_580" data-name="Group 580" transform="translate(0 0)">
          <path id="Path_5349" data-name="Path 5349" d="M84.862,1475.856,83.8,1477.13l-6.267-5.221-4.75,6.632-1.345-.965,5.786-8.076Z" transform="translate(-71.441 -1469.499)" fill="#2d9de0"/>
        </g>
      </g>
      <g id="Group_584" data-name="Group 584" transform="translate(101.438 1424.082)">
        <g id="Group_582" data-name="Group 582" transform="translate(0.967 0)">
          <path id="Path_5350" data-name="Path 5350" d="M154.154,1500.908a.827.827,0,0,1-.059-1.652,23.416,23.416,0,0,0,21.2-18.743.827.827,0,1,1,1.623.322,25.075,25.075,0,0,1-22.706,20.072Z" transform="translate(-153.328 -1479.846)" fill="#2d9de0"/>
        </g>
        <g id="Group_583" data-name="Group 583" transform="translate(0 12.671)">
          <path id="Path_5351" data-name="Path 5351" d="M157.136,1513.355l1.272,1.06-5.227,6.261,6.628,4.757-.967,1.344-8.071-5.795Z" transform="translate(-150.771 -1513.355)" fill="#2d9de0"/>
        </g>
      </g>
      <g id="Group_587" data-name="Group 587" transform="translate(105.007 1395.528)">
        <g id="Group_585" data-name="Group 585">
          <path id="Path_5352" data-name="Path 5352" d="M180.787,1428.008a.827.827,0,0,1-.824-.767,23.358,23.358,0,0,0-19.075-21.267.827.827,0,0,1,.3-1.627,25.012,25.012,0,0,1,20.426,22.773.827.827,0,0,1-.765.886Z" transform="translate(-160.21 -1404.333)" fill="#2d9de0"/>
        </g>
        <g id="Group_586" data-name="Group 586" transform="translate(13.012 15.603)">
          <path id="Path_5353" data-name="Path 5353" d="M194.622,1448.273l1.059-1.272,6.263,5.225,4.755-6.629,1.344.966-5.792,8.072Z" transform="translate(-194.622 -1445.596)" fill="#2d9de0"/>
        </g>
      </g>
      <path id="Path_5354" data-name="Path 5354" d="M185.811,1491.29a1.456,1.456,0,1,0-1.456,1.456A1.456,1.456,0,0,0,185.811,1491.29Z" transform="translate(-69.312 -61.975)" fill="#2d9de0"/>
      <path id="Path_5355" data-name="Path 5355" d="M185.811,1466.237a1.456,1.456,0,1,0-1.456,1.457A1.456,1.456,0,0,0,185.811,1466.237Z" transform="translate(-69.312 -46.395)" fill="#2d9de0"/>
      <path id="Path_5356" data-name="Path 5356" d="M112.784,1466.237a1.456,1.456,0,1,0-1.456,1.457A1.456,1.456,0,0,0,112.784,1466.237Z" transform="translate(-23.899 -46.395)" fill="#2d9de0"/>
      <path id="Path_5357" data-name="Path 5357" d="M185.811,1441.068a1.456,1.456,0,1,0-1.456,1.456A1.456,1.456,0,0,0,185.811,1441.068Z" transform="translate(-69.312 -30.744)" fill="#2d9de0"/>
      <path id="Path_5358" data-name="Path 5358" d="M112.641,1491.29a1.456,1.456,0,1,0-1.456,1.456A1.456,1.456,0,0,0,112.641,1491.29Z" transform="translate(-23.81 -61.975)" fill="#2d9de0"/>
      <path id="Path_5359" data-name="Path 5359" d="M112.641,1441.068a1.456,1.456,0,1,0-1.456,1.456A1.456,1.456,0,0,0,112.641,1441.068Z" transform="translate(-23.81 -30.744)" fill="#2d9de0"/>
      <g id="Group_588" data-name="Group 588" transform="translate(71.868 1390.403)">
        <path id="Path_5360" data-name="Path 5360" d="M104.453,1449.812a29.84,29.84,0,0,1-4.65.018l.107-1.429a28.347,28.347,0,0,0,4.426-.017Zm-6.385-.164a29.346,29.346,0,0,1-4.547-.984l.414-1.372a27.97,27.97,0,0,0,4.324.937Zm14.313-1.6-.5-1.343a28.045,28.045,0,0,0,4.013-1.87l.706,1.247A29.448,29.448,0,0,1,112.38,1448.051Zm-20.512.061a29.611,29.611,0,0,1-4.224-1.941l.7-1.251a28.176,28.176,0,0,0,4.019,1.847Zm26.225-2.932-.779-1.2a28.211,28.211,0,0,0,3.514-2.691l.958,1.065A29.548,29.548,0,0,1,118.093,1445.179Zm-31.946.1a29.84,29.84,0,0,1-3.712-2.8l.95-1.073a28.339,28.339,0,0,0,3.532,2.667Zm36.9-4.13-1.019-1.008a28.428,28.428,0,0,0,2.857-3.381l1.163.837A29.871,29.871,0,0,1,123.05,1441.146Zm-41.887.132a29.678,29.678,0,0,1-3.027-3.531l1.158-.844a28.242,28.242,0,0,0,2.881,3.361Zm45.865-5.13-1.211-.767a28.205,28.205,0,0,0,2.066-3.912l1.316.568A29.678,29.678,0,0,1,127.028,1436.148Zm-49.879.156a29.507,29.507,0,0,1-2.2-4.1l1.313-.574a28.067,28.067,0,0,0,2.089,3.9Zm52.694-5.888-1.347-.489a28.023,28.023,0,0,0,1.175-4.266l1.407.27A29.449,29.449,0,0,1,129.842,1430.417Zm1.513-6.208-1.421-.186a28.209,28.209,0,0,0,.226-4.419l1.433-.039A29.706,29.706,0,0,1,131.355,1424.209ZM74,1418.112,72.569,1418a29.481,29.481,0,0,1,.73-4.593l1.393.336A28.083,28.083,0,0,0,74,1418.112Zm54.394-7.523a28.009,28.009,0,0,0-1.855-4.02l1.249-.7a29.459,29.459,0,0,1,1.951,4.227Zm-53.262,1.551-1.371-.418a29.516,29.516,0,0,1,1.7-4.325l1.288.629A28.1,28.1,0,0,0,75.13,1412.141Zm50.55-7a28.111,28.111,0,0,0-2.68-3.523l1.069-.955a29.6,29.6,0,0,1,2.817,3.7Zm-48.156,1.413-1.248-.7a29.765,29.765,0,0,1,2.594-3.859l1.123.89A28.358,28.358,0,0,0,77.524,1406.558Zm44.332-6.143a28.455,28.455,0,0,0-3.373-2.867l.84-1.161a29.778,29.778,0,0,1,3.543,3.012Zm-40.794,1.2-1.069-.954a29.717,29.717,0,0,1,3.359-3.216l.907,1.109A28.358,28.358,0,0,0,81.062,1401.613Zm36.048-5a28.32,28.32,0,0,0-3.906-2.079l.572-1.314a29.708,29.708,0,0,1,4.1,2.184Zm-31.533.924-.84-1.161a29.546,29.546,0,0,1,3.974-2.421l.646,1.279A28.111,28.111,0,0,0,85.577,1397.538Zm26.087-3.619a28.034,28.034,0,0,0-4.261-1.19l.275-1.407a29.4,29.4,0,0,1,4.48,1.251Zm-5.9-1.46a28.033,28.033,0,0,0-4.418-.24l-.035-1.433a29.616,29.616,0,0,1,4.644.253Z" transform="translate(-72.569 -1390.777)" fill="#2d9de0"/>
      </g>
    </g>
  </g>
</svg>
