<svg xmlns="http://www.w3.org/2000/svg" width="60.316" height="60" viewBox="0 0 60.316 60">
  <g id="Group_643" data-name="Group 643" transform="translate(-716.373 -1392.5)">
    <path id="Path_5287" data-name="Path 5287" d="M766.748,1430.177a12.582,12.582,0,1,0-6.98-24.008,14.273,14.273,0,0,0-28.271,2.773,11.732,11.732,0,0,0-2.123-.2,10.809,10.809,0,1,0,0,21.617h2.955Z" transform="translate(-1.368 -1.367)" fill="#fff"/>
    <g id="Group_529" data-name="Group 529" transform="translate(716.373 1392.5)">
      <path id="Path_5288" data-name="Path 5288" d="M728.006,1429.812a11.63,11.63,0,1,1,1.335-23.182,15.094,15.094,0,0,1,29.648-2.926,13.4,13.4,0,1,1,6.527,25.915l-.131.011-34.419.182Zm0-21.617a9.988,9.988,0,1,0,0,19.977h2.955l34.348-.181a11.761,11.761,0,1,0-6.59-22.431l-.928.39-.195-.988a13.453,13.453,0,0,0-26.646,2.617l0,.98-.964-.176A10.849,10.849,0,0,0,728.006,1408.2Z" transform="translate(-716.373 -1392.5)" fill="#2d9de0"/>
    </g>
    <g id="Group_530" data-name="Group 530" transform="translate(718.013 1394.14)">
      <path id="Path_5289" data-name="Path 5289" d="M730.741,1430.906a9.988,9.988,0,1,1,0-19.977,10.865,10.865,0,0,1,1.975.187l.964.176,0-.98a13.453,13.453,0,0,1,26.647-2.617l.195.988.928-.39a11.764,11.764,0,1,1,6.661,22.419l-.14.013-34.278.181Zm0-18.336a8.348,8.348,0,1,0,0,16.7h2.951l34.2-.181a10.121,10.121,0,1,0-5.8-19.279l-2.784,1.17-.584-2.963a11.813,11.813,0,0,0-23.4,2.306l-.01,2.942-2.893-.53A9.265,9.265,0,0,0,730.741,1412.57Z" transform="translate(-720.748 -1396.875)" fill="#c2e6fd"/>
    </g>
    <g id="Group_531" data-name="Group 531" transform="translate(737.492 1401.238)">
      <circle id="Ellipse_7" data-name="Ellipse 7" cx="0.903" cy="0.903" r="0.903" fill="#2d9de0"/>
      <circle id="Ellipse_8" data-name="Ellipse 8" cx="0.903" cy="0.903" r="0.903" transform="translate(0 3.107)" fill="#2d9de0"/>
      <circle id="Ellipse_9" data-name="Ellipse 9" cx="0.903" cy="0.903" r="0.903" transform="translate(0 6.214)" fill="#2d9de0"/>
      <circle id="Ellipse_10" data-name="Ellipse 10" cx="0.903" cy="0.903" r="0.903" transform="translate(3.143)" fill="#2d9de0"/>
      <circle id="Ellipse_11" data-name="Ellipse 11" cx="0.903" cy="0.903" r="0.903" transform="translate(3.143 3.107)" fill="#2d9de0"/>
      <circle id="Ellipse_12" data-name="Ellipse 12" cx="0.903" cy="0.903" r="0.903" transform="translate(3.143 6.214)" fill="#2d9de0"/>
      <circle id="Ellipse_13" data-name="Ellipse 13" cx="0.903" cy="0.903" r="0.903" transform="translate(9.353)" fill="#2d9de0"/>
      <circle id="Ellipse_14" data-name="Ellipse 14" cx="0.903" cy="0.903" r="0.903" transform="translate(9.353 3.107)" fill="#2d9de0"/>
      <circle id="Ellipse_15" data-name="Ellipse 15" cx="0.903" cy="0.903" r="0.903" transform="translate(9.353 6.214)" fill="#2d9de0"/>
      <circle id="Ellipse_16" data-name="Ellipse 16" cx="0.903" cy="0.903" r="0.903" transform="translate(6.318)" fill="#2d9de0"/>
      <circle id="Ellipse_17" data-name="Ellipse 17" cx="0.903" cy="0.903" r="0.903" transform="translate(6.318 3.107)" fill="#2d9de0"/>
      <circle id="Ellipse_18" data-name="Ellipse 18" cx="0.903" cy="0.903" r="0.903" transform="translate(6.318 6.214)" fill="#2d9de0"/>
      <circle id="Ellipse_19" data-name="Ellipse 19" cx="0.903" cy="0.903" r="0.903" transform="translate(12.496)" fill="#2d9de0"/>
      <circle id="Ellipse_20" data-name="Ellipse 20" cx="0.903" cy="0.903" r="0.903" transform="translate(12.496 3.107)" fill="#2d9de0"/>
      <circle id="Ellipse_21" data-name="Ellipse 21" cx="0.903" cy="0.903" r="0.903" transform="translate(12.496 6.214)" fill="#2d9de0"/>
    </g>
    <path id="Path_5290" data-name="Path 5290" d="M773.145,1526.769l-2.88,5.107-3.009-5.032Z" transform="translate(-31.805 -83.925)" fill="#2d9de0"/>
    <path id="Path_5291" data-name="Path 5291" d="M806.484,1526.769l-2.88,5.107-3.009-5.032Z" transform="translate(-52.644 -83.925)" fill="#2d9de0"/>
    <rect id="Rectangle_92" data-name="Rectangle 92" width="13.614" height="13.614" transform="translate(737.836 1418.803)" fill="#fff"/>
    <g id="Group_532" data-name="Group 532" transform="translate(737.016 1417.982)">
      <path id="Path_5292" data-name="Path 5292" d="M786.683,1475.717H771.428v-15.255h15.255Zm-13.614-1.64h11.974V1462.1H773.068Z" transform="translate(-771.428 -1460.462)" fill="#2d9de0"/>
    </g>
    <g id="Group_533" data-name="Group 533" transform="translate(728.581 1413.892)">
      <path id="Path_5293" data-name="Path 5293" d="M761.917,1454.135h-1.64v-2.942H748.931v-1.64h12.987Z" transform="translate(-748.931 -1449.553)" fill="#2d9de0"/>
    </g>
    <g id="Group_536" data-name="Group 536" transform="translate(724.784 1432.536)">
      <g id="Group_534" data-name="Group 534" transform="translate(1.943 0)">
        <path id="Path_5294" data-name="Path 5294" d="M758.828,1507.175h-14.84v-1.64h13.2v-6.256h1.64Z" transform="translate(-743.988 -1499.279)" fill="#2d9de0"/>
      </g>
      <g id="Group_535" data-name="Group 535" transform="translate(0 2.284)">
        <path id="Path_5295" data-name="Path 5295" d="M744.036,1505.37l1.222,1.312-3.821,3.478,3.54,3.405-1.222,1.312-4.948-4.717Z" transform="translate(-738.806 -1505.37)" fill="#2d9de0"/>
      </g>
    </g>
    <g id="Group_539" data-name="Group 539" transform="translate(747.7 1432.536)">
      <g id="Group_537" data-name="Group 537" transform="translate(0 0)">
        <path id="Path_5296" data-name="Path 5296" d="M814.762,1507.175h-14.84v-7.9h1.64v6.256h13.2Z" transform="translate(-799.923 -1499.279)" fill="#2d9de0"/>
      </g>
      <g id="Group_538" data-name="Group 538" transform="translate(10.332 2.284)">
        <path id="Path_5297" data-name="Path 5297" d="M828.7,1505.37l-1.222,1.312,3.821,3.478-3.54,3.405,1.222,1.312,4.948-4.717Z" transform="translate(-827.477 -1505.37)" fill="#2d9de0"/>
      </g>
    </g>
    <g id="Group_540" data-name="Group 540" transform="translate(743.823 1432.536)">
      <rect id="Rectangle_93" data-name="Rectangle 93" width="1.64" height="18.466" transform="translate(0 0)" fill="#2d9de0"/>
    </g>
    <rect id="Rectangle_94" data-name="Rectangle 94" width="5.643" height="5.643" transform="translate(741.822 1422.788)" fill="#e8edfc"/>
    <g id="Group_541" data-name="Group 541" transform="translate(741.002 1421.968)">
      <path id="Path_5298" data-name="Path 5298" d="M789.342,1478.376h-7.283v-7.284h7.283Zm-5.643-1.64h4v-4h-4Z" transform="translate(-782.059 -1471.092)" fill="#2d9de0"/>
    </g>
    <g id="Group_542" data-name="Group 542" transform="translate(763.878 1410.331)">
      <path id="Path_5299" data-name="Path 5299" d="M845.989,1445.892a2.917,2.917,0,1,1,2.917-2.917A2.921,2.921,0,0,1,845.989,1445.892Zm0-4.194a1.277,1.277,0,1,0,1.277,1.277A1.279,1.279,0,0,0,845.989,1441.7Z" transform="translate(-843.071 -1440.057)" fill="#2d9de0"/>
    </g>
    <path id="Path_5300" data-name="Path 5300" d="M838.465,1466.8a2.1,2.1,0,1,0-2.1,2.1A2.1,2.1,0,0,0,838.465,1466.8Z" transform="translate(-73.692 -45.128)" fill="#e8edfc"/>
    <g id="Group_543" data-name="Group 543" transform="translate(759.758 1418.751)">
      <path id="Path_5301" data-name="Path 5301" d="M835,1468.347a2.917,2.917,0,1,1,2.917-2.917A2.921,2.921,0,0,1,835,1468.347Zm0-4.195a1.277,1.277,0,1,0,1.277,1.277A1.279,1.279,0,0,0,835,1464.152Z" transform="translate(-832.083 -1462.512)" fill="#2d9de0"/>
    </g>
    <g id="Group_544" data-name="Group 544" transform="translate(751.331 1412.459)">
      <path id="Path_5302" data-name="Path 5302" d="M813.269,1455.641h-3.662V1454h2.787l5.553-8.27H823.7v1.64h-4.877Z" transform="translate(-809.607 -1445.73)" fill="#2d9de0"/>
    </g>
    <g id="Group_545" data-name="Group 545" transform="translate(754.556 1420.729)">
      <rect id="Rectangle_95" data-name="Rectangle 95" width="5.911" height="1.64" transform="translate(0 0)" fill="#2d9de0"/>
    </g>
    <g id="Group_546" data-name="Group 546" transform="translate(728.159 1418.751)">
      <path id="Path_5303" data-name="Path 5303" d="M750.724,1468.347a2.917,2.917,0,1,1,2.917-2.917A2.921,2.921,0,0,1,750.724,1468.347Zm0-4.195a1.277,1.277,0,1,0,1.277,1.277A1.278,1.278,0,0,0,750.724,1464.152Z" transform="translate(-747.806 -1462.512)" fill="#2d9de0"/>
    </g>
    <path id="Path_5304" data-name="Path 5304" d="M737.571,1448.88a2.1,2.1,0,1,1,2.1,2.1A2.1,2.1,0,0,1,737.571,1448.88Z" transform="translate(-13.25 -33.93)" fill="#e8edfc"/>
    <g id="Group_547" data-name="Group 547" transform="translate(723.501 1412.033)">
      <path id="Path_5305" data-name="Path 5305" d="M738.3,1450.43a2.918,2.918,0,1,1,2.917-2.917A2.92,2.92,0,0,1,738.3,1450.43Zm0-4.195a1.277,1.277,0,1,0,1.277,1.277A1.279,1.279,0,0,0,738.3,1446.235Z" transform="translate(-735.383 -1444.595)" fill="#2d9de0"/>
    </g>
    <g id="Group_550" data-name="Group 550" transform="translate(744.319 1410.599)">
      <g id="Group_548" data-name="Group 548" transform="translate(0 1.859)">
        <path id="Path_5306" data-name="Path 5306" d="M792.547,1451.745h-1.64v-6.016h6.436v1.64h-4.8Z" transform="translate(-790.907 -1445.729)" fill="#2d9de0"/>
      </g>
      <path id="Path_5307" data-name="Path 5307" d="M812.44,1445.056a2.1,2.1,0,1,0-2.1,2.1A2.1,2.1,0,0,0,812.44,1445.056Z" transform="translate(-801.744 -1442.139)" fill="#e8edfc"/>
      <g id="Group_549" data-name="Group 549" transform="translate(5.681 0)">
        <path id="Path_5308" data-name="Path 5308" d="M808.975,1446.607a2.917,2.917,0,1,1,2.917-2.917A2.921,2.921,0,0,1,808.975,1446.607Zm0-4.195a1.277,1.277,0,1,0,1.277,1.277A1.278,1.278,0,0,0,808.975,1442.412Z" transform="translate(-806.058 -1440.772)" fill="#2d9de0"/>
      </g>
    </g>
    <g id="Group_551" data-name="Group 551" transform="translate(732.746 1420.729)">
      <rect id="Rectangle_96" data-name="Rectangle 96" width="5.277" height="1.64" fill="#2d9de0"/>
    </g>
    <path id="Path_5309" data-name="Path 5309" d="M790.556,1545.274a1.672,1.672,0,1,0-1.672,1.672A1.672,1.672,0,0,0,790.556,1545.274Z" transform="translate(-44.277 -94.446)" fill="#2d9de0"/>
  </g>
</svg>
