<svg xmlns="http://www.w3.org/2000/svg" width="43.233" height="48" viewBox="0 0 43.233 48">
  <g id="teamwork" transform="translate(0 0)">
    <path id="Path_8345" data-name="Path 8345" d="M9.548,205.163v-9.17a6.932,6.932,0,0,1,.272-1.923H3.637A3.642,3.642,0,0,0,0,197.708V205a3.655,3.655,0,0,0,1.858,3.168v10.605a1.4,1.4,0,0,0,1.4,1.4h8.621v-9.8a7.044,7.044,0,0,1-2.335-5.214Zm0,0" transform="translate(0 -175.876)" fill="#0d223f"/>
    <path id="Path_8346" data-name="Path 8346" d="M27.7,70.063a5.5,5.5,0,1,0-5.5-5.5A5.5,5.5,0,0,0,27.7,70.063Zm0,0" transform="translate(-20.118 -53.528)" fill="#0d223f"/>
    <path id="Path_8347" data-name="Path 8347" d="M145.909,169.668H136a4.216,4.216,0,0,0-4.21,4.211v9.17a4.227,4.227,0,0,0,2.335,3.766v13.544a1.4,1.4,0,0,0,1.4,1.4h10.858a1.4,1.4,0,0,0,1.4-1.4V186.814a4.229,4.229,0,0,0,2.335-3.766v-9.17a4.217,4.217,0,0,0-4.211-4.211Zm0,0" transform="translate(-119.43 -153.761)" fill="#5099ff"/>
    <path id="Path_8348" data-name="Path 8348" d="M166.233,13.1a6.55,6.55,0,1,0-6.55-6.55A6.557,6.557,0,0,0,166.233,13.1Zm0,0" transform="translate(-144.713 0)" fill="#5099ff"/>
    <path id="Path_8349" data-name="Path 8349" d="M343.4,195.136a3.626,3.626,0,0,0-2.57-1.066h-6.371a6.945,6.945,0,0,1,.272,1.923v9.17a7.045,7.045,0,0,1-2.335,5.214v9.794a1.434,1.434,0,0,0,.17.01h8.64a1.4,1.4,0,0,0,1.4-1.4V208.171A3.655,3.655,0,0,0,344.466,205v-7.3a3.627,3.627,0,0,0-1.067-2.57Zm0,0" transform="translate(-301.233 -175.876)" fill="#0d223f"/>
    <path id="Path_8350" data-name="Path 8350" d="M327.112,70.063a5.5,5.5,0,1,0-5.5-5.5A5.5,5.5,0,0,0,327.112,70.063Zm0,0" transform="translate(-291.462 -53.528)" fill="#0d223f"/>
  </g>
</svg>
