<svg id="Page-1" xmlns="http://www.w3.org/2000/svg" width="60" height="60" viewBox="0 0 60 60">
  <g id="_116---Scales" data-name="116---Scales">
    <path id="Shape" d="M32,7H46a2.013,2.013,0,0,1,1.6.8c.27.36.8.97,1.28.98h.01A2.58,2.58,0,0,0,50.4,7.8,2.013,2.013,0,0,1,52,7h5a2,2,0,1,1,0,4H52.88a5.948,5.948,0,0,1-3.99,1.78A5.207,5.207,0,0,1,45.08,11H14.92a5.207,5.207,0,0,1-3.81,1.78A5.948,5.948,0,0,1,7.12,11H3A2,2,0,0,1,3,7H8a2.013,2.013,0,0,1,1.6.8,2.58,2.58,0,0,0,1.51.98h.01c.48-.01,1.01-.62,1.28-.98A2.013,2.013,0,0,1,14,7Z" fill="#a4c2f7"/>
    <path id="Shape-2" data-name="Shape" d="M28,55H45a1,1,0,0,1,1,1v1a2,2,0,0,1-2,2H16a2,2,0,0,1-2-2V56a1,1,0,0,1,1-1Z" fill="#e8edfc"/>
    <path id="Shape-3" data-name="Shape" d="M45,55H42a1,1,0,0,1,1,1v1a2,2,0,0,1-2,2h3a2,2,0,0,0,2-2V56A1,1,0,0,0,45,55Z" fill="#cad9fc"/>
    <path id="Shape-4" data-name="Shape" d="M19,55a6,6,0,0,1,6-6H35a6,6,0,0,1,6,6" fill="#e8edfc"/>
    <path id="Shape-5" data-name="Shape" d="M35,49H32a6,6,0,0,1,6,6h3A6,6,0,0,0,35,49Z" fill="#cad9fc"/>
    <path id="Shape-6" data-name="Shape" d="M30,1a2,2,0,0,1,2,2V49H28V3A2,2,0,0,1,30,1Z" fill="#a4c2f7"/>
    <path id="Shape-7" data-name="Shape" d="M16,30h4a1,1,0,0,1,1,1v4a5,5,0,0,1-5,5H6a5,5,0,0,1-5-5V31a1,1,0,0,1,1-1Z" fill="#e8edfc"/>
    <path id="Shape-8" data-name="Shape" d="M20,30H17a1,1,0,0,1,1,1v4a5,5,0,0,1-5,5h3a5,5,0,0,0,5-5V31A1,1,0,0,0,20,30Z" fill="#cad9fc"/>
    <path id="Shape-9" data-name="Shape" d="M54,30h4a1,1,0,0,1,1,1v4a5,5,0,0,1-5,5H44a5,5,0,0,1-5-5V31a1,1,0,0,1,1-1Z" fill="#e8edfc"/>
    <path id="Shape-10" data-name="Shape" d="M58,30H55a1,1,0,0,1,1,1v4a5,5,0,0,1-5,5h3a5,5,0,0,0,5-5V31a1,1,0,0,0-1-1Z" fill="#cad9fc"/>
    <g id="Group_634" data-name="Group 634">
      <path id="Shape-11" data-name="Shape" d="M3,11H6A2,2,0,0,1,6,7H3a2,2,0,0,0,0,4Z" fill="#fff"/>
      <path id="Shape-12" data-name="Shape" d="M1,35a5,5,0,0,0,5,5H9a5,5,0,0,1-5-5V31a1,1,0,0,1,1-1H2a1,1,0,0,0-1,1Z" fill="#fff"/>
      <path id="Shape-13" data-name="Shape" d="M28,49H25a6,6,0,0,0-6,6h3A6,6,0,0,1,28,49Z" fill="#fff"/>
      <path id="Shape-14" data-name="Shape" d="M16,59h3a2,2,0,0,1-2-2V56a1,1,0,0,1,1-1H15a1,1,0,0,0-1,1v1A2,2,0,0,0,16,59Z" fill="#fff"/>
      <path id="Shape-15" data-name="Shape" d="M12.6,12.531A6.585,6.585,0,0,1,10.12,11h-3A5.363,5.363,0,0,0,12.6,12.531Z" fill="#fff"/>
      <path id="Rectangle-path" d="M8,39h8v2H8Z" fill="#fff"/>
    </g>
    <path id="Shape-16" data-name="Shape" d="M57,12a3,3,0,0,0,0-6H52a3.027,3.027,0,0,0-2.393,1.19,2.534,2.534,0,0,1-.672.569A2.593,2.593,0,0,1,48.4,7.2,3.027,3.027,0,0,0,46,6H33V3a3,3,0,1,0-6,0V6H14a3.03,3.03,0,0,0-2.4,1.2,2.608,2.608,0,0,1-.529.556A2.415,2.415,0,0,1,10.4,7.2,3.027,3.027,0,0,0,8,6H3a3,3,0,0,0,0,6H6.734a7.523,7.523,0,0,0,2.517,1.472L2.35,29H2a2,2,0,0,0-2,2v4a6,6,0,0,0,2.685,5,6.082,6.082,0,0,0,2.761.972c.525.037.912.027,1.322.028H8a1,1,0,0,0,0-2H6.768c-.41,0-.844,0-1.139-.019a4.089,4.089,0,0,1-1.837-.647A4.027,4.027,0,0,1,2,35V31h9a1,1,0,0,0,0-2H4.539L11,14.462,17.461,29H16a1,1,0,0,0,0,2h4v4a4,4,0,0,1-4,4,1,1,0,0,0,0,2,6.006,6.006,0,0,0,6-6V31a2,2,0,0,0-2-2h-.35L12.771,13.522A6.491,6.491,0,0,0,15.331,12H27V48H25a7.006,7.006,0,0,0-6.92,6H15a2,2,0,0,0-2,2v1a3,3,0,0,0,3,3H44a3,3,0,0,0,3-3V56a2,2,0,0,0-2-2H41.92A7.006,7.006,0,0,0,35,48H33V12H44.669a6.491,6.491,0,0,0,2.56,1.522L40.35,29H40a2,2,0,0,0-2,2v4a6.006,6.006,0,0,0,6,6H54a6.006,6.006,0,0,0,6-6V31a2,2,0,0,0-2-2h-.35l-6.9-15.528A7.523,7.523,0,0,0,53.266,12ZM14.92,10a1,1,0,0,0-.722.309,4.583,4.583,0,0,1-2.248,1.365l-.036-.08a1,1,0,0,0-1.828,0l-.017.038a5.582,5.582,0,0,1-2.26-1.357A1,1,0,0,0,7.12,10H3A1,1,0,0,1,3,8H8a1.021,1.021,0,0,1,.807.409A3.578,3.578,0,0,0,11.143,9.78,2.831,2.831,0,0,0,13.2,8.4,1.021,1.021,0,0,1,14,8H27v2ZM39.9,54H28a1,1,0,1,0,0,2H45v1a1,1,0,0,1-1,1H16a1,1,0,0,1-1-1V56h7a1,1,0,0,0,0-2H20.1A5.009,5.009,0,0,1,25,50H35a5.009,5.009,0,0,1,4.9,4ZM29,48V3a1,1,0,1,1,2,0V48ZM54,31h4v4a4,4,0,0,1-4,4H44a4,4,0,0,1-4-4V31h9a1,1,0,0,0,0-2H42.539L49,14.462,55.461,29H54a1,1,0,0,0,0,2ZM52.191,10.275a5.582,5.582,0,0,1-2.26,1.357l-.017-.038a1,1,0,0,0-1.828,0l-.036.08a4.583,4.583,0,0,1-2.25-1.365A1,1,0,0,0,45.08,10H33V8H46a1.015,1.015,0,0,1,.8.4,2.833,2.833,0,0,0,2.09,1.38A3.568,3.568,0,0,0,51.2,8.4,1.021,1.021,0,0,1,52,8h5a1,1,0,0,1,0,2H52.88A1,1,0,0,0,52.191,10.275Z" fill="#428dff"/>
    <circle id="Oval" cx="1" cy="1" r="1" transform="translate(11 39)" fill="#428dff"/>
  </g>
</svg>
