<svg id="template_1_" data-name="template (1)" xmlns="http://www.w3.org/2000/svg" width="48" height="48" viewBox="0 0 48 48">
  <path id="Path_8351" data-name="Path 8351" d="M331,376h5.625v5.625H331Z" transform="translate(-299.969 -340.75)" fill="#5099ff"/>
  <path id="Path_8352" data-name="Path 8352" d="M121,376h11.25v5.625H121Z" transform="translate(-109.656 -340.75)" fill="#5099ff"/>
  <path id="Path_8353" data-name="Path 8353" d="M0,179.625a4.3,4.3,0,0,0,4.219,4.313H43.781A4.3,4.3,0,0,0,48,179.625V150H0Zm39.469-1.406a1.405,1.405,0,0,1-1.406,1.406H29.625a1.405,1.405,0,0,1-1.406-1.406v-8.437a1.405,1.405,0,0,1,1.406-1.406h8.438a1.405,1.405,0,0,1,1.406,1.406Zm-30.937-22.5a1.405,1.405,0,0,1,1.406-1.406H38.063a1.405,1.405,0,0,1,1.406,1.406v8.438a1.405,1.405,0,0,1-1.406,1.406H9.938a1.405,1.405,0,0,1-1.406-1.406Zm0,14.063a1.405,1.405,0,0,1,1.406-1.406H24a1.405,1.405,0,0,1,1.406,1.406v8.438A1.405,1.405,0,0,1,24,179.625H9.938a1.405,1.405,0,0,1-1.406-1.406Z" transform="translate(0 -135.938)" fill="#0d223f"/>
  <path id="Path_8354" data-name="Path 8354" d="M121,226h25.313v5.625H121Z" transform="translate(-109.656 -204.813)" fill="#5099ff"/>
  <path id="Path_8355" data-name="Path 8355" d="M43.781,0H4.219A4.223,4.223,0,0,0,0,4.219V11.25H48V4.219A4.223,4.223,0,0,0,43.781,0ZM9.938,7.031a1.406,1.406,0,1,1,1.406-1.406A1.406,1.406,0,0,1,9.938,7.031Zm5.625,0a1.406,1.406,0,1,1,1.406-1.406A1.406,1.406,0,0,1,15.563,7.031Zm5.625,0a1.406,1.406,0,1,1,1.406-1.406A1.406,1.406,0,0,1,21.188,7.031Z" fill="#0d223f"/>
</svg>
