<svg id="Page-1" xmlns="http://www.w3.org/2000/svg" width="60" height="60" viewBox="0 0 60 60">
  <g id="_012---Influencer-Marketing" data-name="012---Influencer-Marketing">
    <path id="Shape" d="M29,33a3,3,0,0,1-3,3,2.6,2.6,0,0,1-.56-.06A10.37,10.37,0,0,1,20.24,42a6.423,6.423,0,0,1-.85.37,9.436,9.436,0,0,1-6.78,0,10.28,10.28,0,0,1-6.05-6.43A2.6,2.6,0,0,1,6,36a3,3,0,0,1,0-6V25.85C2.24,22.57,3,15,3,15c2,4,8.44,3.11,14,2.96,2.78-.07,5.33.04,7,1.04,5,3,2,11,2,11A3,3,0,0,1,29,33Z" fill="#e8edfc"/>
    <path id="Shape-2" data-name="Shape" d="M26,30s3-8-2-11c-1.943-1.164-5.192-1.1-7.449-1.025A9.65,9.65,0,0,1,21,19c5,3,2,11,2,11a3,3,0,0,1,0,6,2.6,2.6,0,0,1-.56-.06,10.145,10.145,0,0,1-7.94,6.933,9.3,9.3,0,0,0,4.89-.5,6.423,6.423,0,0,0,.85-.37,10.37,10.37,0,0,0,5.2-6.06A2.6,2.6,0,0,0,26,36a3,3,0,1,0,0-6Z" fill="#cad9fc"/>
    <path id="Shape-3" data-name="Shape" d="M21,49a5,5,0,0,1-10,0c2.69-2.02,2.22-4.93,1.61-6.63a9.436,9.436,0,0,0,6.78,0C18.78,44.07,18.31,46.98,21,49Z" fill="#e8edfc"/>
    <path id="Shape-4" data-name="Shape" d="M31,56v1a2.006,2.006,0,0,1-2,2H3a2.006,2.006,0,0,1-2-2V56a7,7,0,0,1,7-7h3a5,5,0,0,0,10,0h3A7.01,7.01,0,0,1,31,56Z" fill="#cad9fc"/>
    <path id="Shape-5" data-name="Shape" d="M29.74,52A6.957,6.957,0,0,0,24,49H21a7.01,7.01,0,0,1,7,7v1a2.006,2.006,0,0,1-2,2h3a2.006,2.006,0,0,0,2-2V56a6.89,6.89,0,0,0-1.26-4Z" fill="#a4c2f7"/>
    <path id="Shape-6" data-name="Shape" d="M56,1a3,3,0,0,1,3,3v9H17V4a3,3,0,0,1,3-3Z" fill="#e8edfc"/>
    <path id="Shape-7" data-name="Shape" d="M59,4a3,3,0,0,0-3-3H53a3,3,0,0,1,3,3v9h3Z" fill="#cad9fc"/>
    <path id="Shape-8" data-name="Shape" d="M59,13V42H20.24a10.37,10.37,0,0,0,5.2-6.06A2.6,2.6,0,0,0,26,36a3,3,0,1,0,0-6s3-8-2-11c-1.67-1-4.22-1.11-7-1.04V13Z" fill="#fff"/>
    <path id="Rectangle-path" d="M56,13h3V42H56Z" fill="#e8edfc"/>
    <path id="Shape-9" data-name="Shape" d="M59,42v7a3,3,0,0,1-3,3H29.74A6.957,6.957,0,0,0,24,49H21c-2.69-2.02-2.22-4.93-1.61-6.63a6.423,6.423,0,0,0,.85-.37Z" fill="#e8edfc"/>
    <path id="Shape-10" data-name="Shape" d="M56,42v7a3,3,0,0,1-3,3h3a3,3,0,0,0,3-3V42Z" fill="#cad9fc"/>
    <circle id="Oval" cx="2" cy="2" r="2" transform="translate(21 5)" fill="#e8edfc"/>
    <circle id="Oval-2" data-name="Oval" cx="2" cy="2" r="2" transform="translate(29 5)" fill="#e8edfc"/>
    <rect id="Rectangle-path-2" data-name="Rectangle-path" width="12" height="4" rx="2" transform="translate(43 5)" fill="#cad9fc"/>
    <path id="Shape-11" data-name="Shape" d="M26.8,26.49c-3.2-3.5-7.3-2.6-10.11-1.09-5.38,2.9-8.7,2.2-10.69.45C2.24,22.57,3,15,3,15c2,4,8.44,3.11,14,2.96,2.78-.07,5.33.04,7,1.04C26.81,20.69,27.09,23.95,26.8,26.49Z" fill="#e8edfc"/>
    <path id="Shape-12" data-name="Shape" d="M24,19c-1.943-1.164-5.192-1.1-7.449-1.025A9.65,9.65,0,0,1,21,19a6.324,6.324,0,0,1,2.88,5.486,7.342,7.342,0,0,1,2.92,2c.29-2.536.01-5.8-2.8-7.486Z" fill="#cad9fc"/>
    <path id="Shape-13" data-name="Shape" d="M20,17.96V4a3,3,0,0,1,3-3H20a3,3,0,0,0-3,3V17.96c-1.346.036-2.743.115-4.116.158C15.146,18.216,17.65,18.023,20,17.96Z" fill="#fff"/>
    <path id="Shape-14" data-name="Shape" d="M3,59H6a2.006,2.006,0,0,1-2-2V56a7,7,0,0,1,7-7H8a7,7,0,0,0-7,7v1A2.006,2.006,0,0,0,3,59Z" fill="#fff"/>
    <path id="Shape-15" data-name="Shape" d="M15.61,42.37a10.175,10.175,0,0,1-5.455-4.99,2.512,2.512,0,0,0-1.709-1.424,3.007,3.007,0,0,1-.959-5.549A2.868,2.868,0,0,0,9,27.958V26.951A2.685,2.685,0,0,0,8.359,25.2c-1.848-2.153-2.318-5.473-2.4-7.737A5.01,5.01,0,0,1,3,15s-.76,7.57,3,10.85V30a3,3,0,1,0,.56,5.94,10.28,10.28,0,0,0,6.05,6.43c.61,1.7,1.08,4.61-1.61,6.63h1.911a2.733,2.733,0,0,0,2.157-1.038,5.79,5.79,0,0,0,.542-5.592Z" fill="#fff"/>
    <path id="Shape-16" data-name="Shape" d="M4.684,48.725l.83,1.82A6.025,6.025,0,0,0,2,56H0A8.034,8.034,0,0,1,4.684,48.725Z" fill="#fff"/>
    <g id="Group_472" data-name="Group 472">
      <path id="Shape-17" data-name="Shape" d="M2.12,53.189a1,1,0,1,1-.011-2H2.12a1,1,0,0,1,0,2Z" fill="#428dff"/>
      <path id="Shape-18" data-name="Shape" d="M56,0H20a4,4,0,0,0-4,4V17l-1.245.051c-4.628.2-9.411.405-10.86-2.494a1,1,0,0,0-1.89.347c-.037.37-.716,7.717,3,11.4V29.13A4,4,0,0,0,5.885,37,11.26,11.26,0,0,0,11.8,43.117,4.371,4.371,0,0,1,10.619,48H8a7.967,7.967,0,0,0-3.32.725.952.952,0,0,0-.462,1.388,1.076,1.076,0,0,0,1.292.432A5.962,5.962,0,0,1,8,50h2.09a6,6,0,0,0,11.827,0H24a6.006,6.006,0,0,1,6,6v1a1,1,0,0,1-1,1H26V56a1,1,0,1,0-2,0v2H8V56a1,1,0,0,0-2,0v2H3a1,1,0,0,1-1-1V56a1,1,0,0,0-2,0v1a3,3,0,0,0,3,3H29a3,3,0,0,0,3-3V56a7.945,7.945,0,0,0-.589-3H56a4,4,0,0,0,4-4V4a4,4,0,0,0-4-4ZM7.509,35.626a1,1,0,0,0-.948-.686c-.188,0-.284.06-.561.06a2,2,0,0,1,0-4,1,1,0,0,0,1-1V27.681a6.945,6.945,0,0,0,.684.268,1,1,0,0,0,.632-1.9,4.789,4.789,0,0,1-1.616-.91.776.776,0,0,0-.092-.08C4.6,23.252,4.069,19.9,3.963,17.591c2.622,1.81,6.8,1.632,10.879,1.454,3.343-.145,6.8-.293,8.643.812,4.222,2.534,1.6,9.721,1.578,9.793A1,1,0,0,0,26,31a2,2,0,1,1-.343,3.964,1,1,0,0,0-1.166.662A9.057,9.057,0,0,1,16,42a9.057,9.057,0,0,1-8.491-6.374ZM16,53a3.991,3.991,0,0,1-3.958-3.589A6.072,6.072,0,0,0,13.979,43.8a10.113,10.113,0,0,0,4.042,0,6.072,6.072,0,0,0,1.937,5.615A3.991,3.991,0,0,1,16,53Zm42-4a2,2,0,0,1-2,2H30.235A7.984,7.984,0,0,0,24,48H21.381A4.371,4.371,0,0,1,20.2,43.117c.087-.038.175-.077.261-.117H58Zm0-8H23.4a11.5,11.5,0,0,0,2.72-4A4,4,0,0,0,27.3,29.215c.681-2.49,1.708-8.38-2.778-11.071-1.671-1-3.968-1.212-6.515-1.194V14H58Zm0-29H18V4a2,2,0,0,1,2-2H56a2,2,0,0,1,2,2Z" fill="#428dff"/>
      <path id="Shape-19" data-name="Shape" d="M31,48H51a1,1,0,0,0,2,0h2a1,1,0,0,0,0-2H53a1,1,0,0,0-2,0H31a1,1,0,0,0,0,2Z" fill="#428dff"/>
      <path id="Shape-20" data-name="Shape" d="M23,4a3,3,0,1,0,3,3A3,3,0,0,0,23,4Zm0,4a1,1,0,1,1,1-1A1,1,0,0,1,23,8Z" fill="#428dff"/>
      <path id="Shape-21" data-name="Shape" d="M31,4a3,3,0,1,0,3,3A3,3,0,0,0,31,4Zm0,4a1,1,0,1,1,1-1A1,1,0,0,1,31,8Z" fill="#428dff"/>
      <path id="Shape-22" data-name="Shape" d="M53,4H45a3,3,0,0,0,0,6h8a3,3,0,0,0,0-6Zm0,4H45a1,1,0,0,1,0-2h8a1,1,0,0,1,0,2Z" fill="#428dff"/>
      <path id="Shape-23" data-name="Shape" d="M32.716,31.958a1,1,0,0,0,1.242-.674L34.93,28h4.138l.974,3.284A1,1,0,0,0,41,32a.968.968,0,0,0,.284-.042,1,1,0,0,0,.674-1.242L38.915,20.448a1.99,1.99,0,0,0-3.83,0L32.042,30.716A1,1,0,0,0,32.716,31.958ZM37,21.017,38.474,26H35.522Z" fill="#428dff"/>
      <path id="Shape-24" data-name="Shape" d="M46,32h1a5.006,5.006,0,0,0,5-5V24a5.006,5.006,0,0,0-5-5H46a2,2,0,0,0-2,2v9A2,2,0,0,0,46,32Zm0-11h1a3,3,0,0,1,3,3v3a3,3,0,0,1-3,3H46Z" fill="#428dff"/>
      <path id="Shape-25" data-name="Shape" d="M33,36H51a1,1,0,0,0,0-2H33a1,1,0,0,0,0,2Z" fill="#428dff"/>
    </g>
  </g>
</svg>
