<svg xmlns="http://www.w3.org/2000/svg" width="32.048" height="32" viewBox="0 0 32.048 32">
  <g id="Page-1" transform="translate(0 -0.004)">
    <g id="_068---voice-mail" data-name="068---voice-mail" transform="translate(0 0.004)">
      <g id="color_copy" transform="translate(0.534 0.533)">
        <path id="Shape" d="M30.65,49.227H4.83L14.514,41.2l1.864-1.541a2.126,2.126,0,0,1,2.724,0L20.966,41.2Z" transform="translate(-2.25 -18.249)" fill="#e8edfc"/>
        <path id="Shape-2" data-name="Shape" d="M12.264,34.112,2.58,42.136H2.137A2.137,2.137,0,0,1,0,40V23.947l3.739,3.1Z" transform="translate(0 -11.158)" fill="#cad9fc"/>
        <path id="Shape-3" data-name="Shape" d="M47.3,23.947V40a2.137,2.137,0,0,1-2.137,2.14h-.443L35.04,34.112l8.525-7.067Z" transform="translate(-16.324 -11.158)" fill="#cad9fc"/>
        <g id="Group_117" data-name="Group 117" transform="translate(0 0)">
          <path id="Shape-4" data-name="Shape" d="M53.929,25.274V40A2.137,2.137,0,0,1,52.7,41.927l.251.209h.443A2.137,2.137,0,0,0,55.531,40V23.947Z" transform="translate(-24.551 -11.158)" fill="#a4c2f7"/>
          <path id="Shape-5" data-name="Shape" d="M29.645,3.7H19.55L23.236.488a2.155,2.155,0,0,1,2.724,0Z" transform="translate(-9.108 -0.003)" fill="#a4c2f7"/>
          <path id="Shape-6" data-name="Shape" d="M54.739,21.106,51,24.2V17.848Z" transform="translate(-23.759 -8.316)" fill="#a4c2f7"/>
          <path id="Shape-7" data-name="Shape" d="M3.739,17.848V24.2L0,21.106Z" transform="translate(0 -8.316)" fill="#a4c2f7"/>
        </g>
        <path id="Shape-8" data-name="Shape" d="M30.5,9.061V19.113L21.977,26.18l-1.864-1.541a2.126,2.126,0,0,0-2.724,0L15.525,26.18,7,19.113V9.061a2.137,2.137,0,0,1,2.137-2.14H28.365A2.137,2.137,0,0,1,30.5,9.061Z" transform="translate(-3.261 -3.226)" fill="#fff"/>
        <path id="Shape-9" data-name="Shape" d="M40.729,6.921h-1.6a2.137,2.137,0,0,1,2.137,2.14V19.113l-7.725,6.4.8.663,8.526-7.067V9.061a2.137,2.137,0,0,0-2.137-2.14Z" transform="translate(-15.624 -3.226)" fill="#e8edfc"/>
        <line id="Line_1" data-name="Line 1" x2="16.024" transform="translate(7.211 9.348)" fill="none" stroke="#428dff" stroke-width="2"/>
        <line id="Line_2" data-name="Line 2" x2="16.024" transform="translate(7.211 12.553)" fill="none" stroke="#428dff" stroke-width="2"/>
        <line id="Line_3" data-name="Line 3" x2="16.024" transform="translate(7.211 15.758)" fill="none" stroke="#428dff" stroke-width="2"/>
      </g>
      <g id="color" transform="translate(0.534 4.229)">
        <path id="Shape-10" data-name="Shape" d="M2.137,28.2h1.6A2.137,2.137,0,0,1,1.6,26.064V10.015L5.341,6.757v-3.7A2.137,2.137,0,0,1,7.478.921h-1.6a2.137,2.137,0,0,0-2.137,2.14v3.7L0,10.016V26.064A2.137,2.137,0,0,0,2.137,28.2Z" transform="translate(0 -0.921)" fill="#fff"/>
      </g>
      <g id="Icons">
        <path id="Rectangle-path" d="M0,46.915H1.068v4.273H0Z" transform="translate(0 -21.858)" fill="#fff"/>
        <g id="Group_118" data-name="Group 118">
          <path id="Shape-11" data-name="Shape" d="M.552,50.983a.534.534,0,0,1-.005-1.068H.552a.534.534,0,0,1,0,1.068Z" transform="translate(-0.007 -23.256)" fill="#428dff"/>
          <path id="Shape-12" data-name="Shape" d="M31.864,12.907,28.309,9.813V6.366A2.674,2.674,0,0,0,25.638,3.7H21.271L17.726.613a2.683,2.683,0,0,0-3.414.009L10.776,3.7H6.41A2.674,2.674,0,0,0,3.739,6.366V9.813L.184,12.907a.6.6,0,0,0-.167.308.519.519,0,0,0-.011.1H0V25.061a.534.534,0,0,0,1.068,0V14.445l10.891,9.012L2.922,30.936H2.671a1.6,1.6,0,0,1-1.6-1.6.534.534,0,0,0-1.068,0A2.674,2.674,0,0,0,2.671,32H29.377a2.674,2.674,0,0,0,2.671-2.671V13.309a.622.622,0,0,0-.184-.4Zm-1.175.393-2.38,1.969V11.23ZM15,1.437a1.606,1.606,0,0,1,2.034-.009L19.643,3.7H12.4ZM3.739,15.269,1.36,13.3,3.739,11.23Zm1.068.884V6.366a1.6,1.6,0,0,1,1.6-1.6H25.638a1.6,1.6,0,0,1,1.6,1.6v9.786l-7.99,6.612L17.727,21.5a2.674,2.674,0,0,0-3.406,0L12.8,22.765ZM15,22.329a1.6,1.6,0,0,1,2.044,0l10.4,8.609H4.6Zm14.375,8.608h-.251l-9.038-7.478L30.98,14.445V29.334a1.6,1.6,0,0,1-1.6,1.6Z" transform="translate(0 -0.004)" fill="#428dff"/>
        </g>
      </g>
    </g>
  </g>
</svg>
