<svg xmlns="http://www.w3.org/2000/svg" width="61.893" height="60" viewBox="0 0 61.893 60">
  <g id="Group_570" data-name="Group 570" transform="translate(-293.092 -1186.139)">
    <path id="Path_5310" data-name="Path 5310" d="M364.37,1239.078a10.876,10.876,0,0,0-.092-3.249l2.264-2.152a14.4,14.4,0,0,0-1.421-3.177l-3.106.254a11.278,11.278,0,0,0-2.366-2.244l.071-3.116a14.011,14.011,0,0,0-3.238-1.239l-2.031,2.375a11.228,11.228,0,0,0-3.248.091l-2.152-2.264a14.543,14.543,0,0,0-3.167,1.421l.244,3.117a10.959,10.959,0,0,0-2.234,2.355l-3.116-.071a13.955,13.955,0,0,0-.721,1.584,12.415,12.415,0,0,0-.518,1.655l2.376,2.031A10.873,10.873,0,0,0,342,1239.7l-2.264,2.152a14.068,14.068,0,0,0,1.421,3.167l3.106-.243a11.2,11.2,0,0,0,2.355,2.233l-.071,3.116a12.332,12.332,0,0,0,1.584.721,12.545,12.545,0,0,0,1.665.518l2.02-2.365a11.213,11.213,0,0,0,3.248-.091l2.152,2.254a13.915,13.915,0,0,0,3.177-1.411l-.243-3.117a11.152,11.152,0,0,0,2.223-2.355l3.127.071a15.966,15.966,0,0,0,.721-1.584,16.46,16.46,0,0,0,.518-1.665Zm-5.208.985a6.451,6.451,0,1,1-3.716-8.324A6.447,6.447,0,0,1,359.162,1240.063Z" transform="translate(-27.696 -22.669)" fill="#e8edfc"/>
    <g id="Group_553" data-name="Group 553" transform="translate(310.858 1200.502)">
      <path id="Path_5311" data-name="Path 5311" d="M348.669,1250.892l-.525-.124a13.536,13.536,0,0,1-1.781-.554,13.25,13.25,0,0,1-1.684-.767l-.475-.257.072-3.2a12.094,12.094,0,0,1-1.85-1.759l-3.188.25-.283-.461a15.025,15.025,0,0,1-1.511-3.365l-.163-.524,2.325-2.211a11.72,11.72,0,0,1-.071-2.557l-2.435-2.081.124-.524a13.16,13.16,0,0,1,.555-1.772,14.885,14.885,0,0,1,.766-1.683l.257-.475,3.2.073a11.779,11.779,0,0,1,1.758-1.854l-.251-3.2.468-.282a15.408,15.408,0,0,1,3.36-1.508l.524-.164,2.213,2.328a12.143,12.143,0,0,1,2.555-.073l2.081-2.435.524.124a14.916,14.916,0,0,1,3.449,1.318l.481.255-.073,3.2a12.177,12.177,0,0,1,1.862,1.764l3.192-.261.283.469a15.333,15.333,0,0,1,1.508,3.372l.161.523-2.323,2.209a11.787,11.787,0,0,1,.071,2.556l2.442,2.077-.136.534a17.567,17.567,0,0,1-.546,1.754,17,17,0,0,1-.765,1.684l-.254.488-3.215-.073a12.078,12.078,0,0,1-1.749,1.85l.25,3.2-.467.282a14.824,14.824,0,0,1-3.379,1.5l-.519.155-2.209-2.312a12.062,12.062,0,0,1-2.556.073ZM346,1248.137c.332.161.665.3,1,.426q.519.2,1.045.352l1.969-2.305.469.057a10.3,10.3,0,0,0,2.993-.085l.464-.08,2.1,2.193a13.036,13.036,0,0,0,2-.888l-.237-3.028.367-.292a10.279,10.279,0,0,0,2.048-2.169l.271-.389,3.041.069c.162-.339.308-.677.438-1.008s.238-.681.341-1.036l-2.309-1.964.057-.471a9.964,9.964,0,0,0-.083-2.984l-.086-.47,2.2-2.1a13.537,13.537,0,0,0-.893-2l-3.022.247-.293-.373a10.427,10.427,0,0,0-2.181-2.068l-.384-.271.07-3.03c-.331-.159-.667-.3-1-.432-.38-.141-.718-.255-1.029-.347l-1.976,2.313-.469-.057a10.34,10.34,0,0,0-2.994.085l-.465.08-2.09-2.2a13.684,13.684,0,0,0-1.991.893l.237,3.033-.373.292a10.032,10.032,0,0,0-2.054,2.165l-.271.389-3.035-.069c-.147.308-.29.642-.433,1.008-.135.345-.249.683-.347,1.023l2.315,1.978-.056.469a9.949,9.949,0,0,0,.083,2.984l.086.47-2.2,2.095a13.247,13.247,0,0,0,.89,1.99l3.022-.237.292.368a10.333,10.333,0,0,0,2.169,2.058l.389.271Zm5.693-4.491a7.342,7.342,0,1,1,2.991-.643A7.332,7.332,0,0,1,351.688,1243.646Zm.012-12.9a5.556,5.556,0,1,0,1.978.365A5.6,5.6,0,0,0,351.7,1230.745Z" transform="translate(-337.101 -1221.718)" fill="#2d9de0"/>
    </g>
    <g id="Group_554" data-name="Group 554" transform="translate(303.584 1193.77)">
      <path id="Path_5312" data-name="Path 5312" d="M340.713,1248.3a21.63,21.63,0,1,1,21.63-21.63A21.654,21.654,0,0,1,340.713,1248.3Zm0-41.494a19.864,19.864,0,1,0,19.864,19.864A19.887,19.887,0,0,0,340.713,1206.808Z" transform="translate(-319.083 -1205.042)" fill="#c2e6fd"/>
    </g>
    <g id="Group_555" data-name="Group 555" transform="translate(315.615 1235.45)">
      <path id="Path_5313" data-name="Path 5313" d="M356.214,1318.894a29.407,29.407,0,0,1-6.715-1.314.883.883,0,1,1,.54-1.681,27.636,27.636,0,0,0,6.311,1.235,30.186,30.186,0,0,0,16.875-3.864.883.883,0,0,1,.865,1.541A31.972,31.972,0,0,1,356.214,1318.894Zm20.912-6.3a.883.883,0,0,1-.471-1.58,24.992,24.992,0,0,0,2.748-2.45.883.883,0,0,1,1.272,1.225,26.8,26.8,0,0,1-2.942,2.624A.881.881,0,0,1,377.127,1312.591Z" transform="translate(-348.886 -1308.289)" fill="#2d9de0"/>
    </g>
    <path id="Path_5314" data-name="Path 5314" d="M412.078,1294.017a2.485,2.485,0,1,0-2.485,2.485A2.486,2.486,0,0,0,412.078,1294.017Z" transform="translate(-67.989 -62.847)" fill="#fff"/>
    <g id="Group_558" data-name="Group 558" transform="translate(301.915 1202.844)">
      <g id="Group_556" data-name="Group 556" transform="translate(0 0.756)">
        <path id="Path_5315" data-name="Path 5315" d="M338.327,1264.529a23.389,23.389,0,0,1-20.214-35.137l1.525.89A21.612,21.612,0,0,0,352.1,1257.8l1.127,1.36A23.4,23.4,0,0,1,338.327,1264.529Z" transform="translate(-314.949 -1229.392)" fill="#2d9de0"/>
      </g>
      <path id="Path_5316" data-name="Path 5316" d="M321.25,1227.519a1.889,1.889,0,1,0,1.889,1.889A1.889,1.889,0,0,0,321.25,1227.519Z" transform="translate(-317.58 -1227.519)" fill="#2d9de0"/>
      <g id="Group_557" data-name="Group 557" transform="translate(36.32 24.958)">
        <path id="Path_5317" data-name="Path 5317" d="M408.288,1296.081a3.368,3.368,0,1,1,3.368-3.368A3.372,3.372,0,0,1,408.288,1296.081Zm0-4.97a1.6,1.6,0,1,0,1.6,1.6A1.6,1.6,0,0,0,408.288,1291.111Z" transform="translate(-404.92 -1289.345)" fill="#2d9de0"/>
      </g>
    </g>
    <g id="Group_562" data-name="Group 562" transform="translate(304.967 1186.139)">
      <g id="Group_559" data-name="Group 559" transform="translate(44.194 44.384)">
        <path id="Path_5318" data-name="Path 5318" d="M433.5,1297.831l-1.517-.906q.248-.416.483-.839l1.545.855Q433.763,1297.391,433.5,1297.831Z" transform="translate(-431.983 -1296.086)" fill="#2d9de0"/>
      </g>
      <g id="Group_560" data-name="Group 560" transform="translate(1.987)">
        <path id="Path_5319" data-name="Path 5319" d="M372.59,1229.567l-1.6-.75c.287-.611.555-1.24.8-1.871l1.648.634C373.18,1228.25,372.895,1228.918,372.59,1229.567Zm1.551-4.031-1.69-.515c.2-.644.373-1.306.524-1.966l1.722.393C374.536,1224.149,374.349,1224.852,374.141,1225.537Zm.962-4.21-1.746-.27c.1-.665.184-1.345.24-2.022l1.76.146C375.3,1219.9,375.211,1220.621,375.1,1221.326Zm.356-4.3-1.766-.024,0-.369c0-.552-.016-1.113-.048-1.665l1.764-.1c.034.586.05,1.18.05,1.766Zm-2-4.086c-.086-.669-.2-1.344-.33-2.007l1.731-.348c.142.7.26,1.421.35,2.131Zm-.8-3.986c-.18-.65-.386-1.3-.612-1.941l1.665-.591c.24.677.459,1.37.65,2.06Zm-1.362-3.834c-.272-.62-.569-1.238-.883-1.835l1.563-.822c.333.634.649,1.29.937,1.949Zm-1.894-3.6c-.356-.575-.738-1.144-1.133-1.692l1.431-1.035c.42.581.825,1.185,1.2,1.8Zm-2.383-3.3c-.434-.519-.892-1.029-1.36-1.515l1.272-1.225c.5.516.982,1.056,1.442,1.607Zm-2.823-2.93c-.5-.453-1.027-.893-1.558-1.308l1.086-1.392c.565.441,1.121.908,1.655,1.389Zm-35.749-2.161-1.017-1.444c.586-.413,1.195-.81,1.809-1.181l.912,1.512C329.573,1192.365,329,1192.739,328.447,1193.128Zm32.544-.343c-.56-.377-1.14-.739-1.726-1.076l.88-1.531c.622.357,1.238.741,1.832,1.142Zm-29.06-1.758-.8-1.573c.64-.327,1.3-.634,1.959-.913l.689,1.626C333.154,1190.43,332.534,1190.72,331.931,1191.027Zm25.537-.268c-.608-.294-1.234-.57-1.86-.819l.655-1.641c.664.265,1.329.558,1.974.87Zm-21.79-1.319-.572-1.671c.678-.232,1.374-.442,2.069-.625l.45,1.708C336.97,1189.025,336.315,1189.222,335.677,1189.44Zm18.015-.187c-.642-.2-1.3-.388-1.959-.547l.415-1.716c.7.169,1.4.365,2.08.581Zm-14.081-.849-.327-1.736c.706-.133,1.425-.242,2.136-.324l.2,1.754C340.954,1188.175,340.276,1188.278,339.611,1188.4Zm10.129-.1c-.666-.111-1.345-.2-2.017-.264l.167-1.759c.714.068,1.434.162,2.142.28Zm-6.086-.365-.079-1.764c.715-.032,1.441-.04,2.16-.022l-.044,1.765C345.013,1187.9,344.328,1187.9,343.653,1187.934Z" transform="translate(-327.43 -1186.139)" fill="#2d9de0"/>
      </g>
      <g id="Group_561" data-name="Group 561" transform="translate(0 6.425)">
        <path id="Path_5320" data-name="Path 5320" d="M323.64,1204.054l-1.132-1.356q.394-.329.8-.645l1.086,1.393Q324.011,1203.745,323.64,1204.054Z" transform="translate(-322.508 -1202.054)" fill="#2d9de0"/>
      </g>
    </g>
    <circle id="Ellipse_22" data-name="Ellipse 22" cx="1.622" cy="1.622" r="1.622" transform="translate(348.433 1229.902)" fill="#2d9de0"/>
    <path id="Path_5321" data-name="Path 5321" d="M321.853,1195.464a3.271,3.271,0,1,0,3.271,3.271A3.271,3.271,0,0,0,321.853,1195.464Z" transform="translate(-15.2 -5.561)" fill="#fff"/>
    <g id="Group_563" data-name="Group 563" transform="translate(302.575 1188.966)">
      <path id="Path_5322" data-name="Path 5322" d="M320.738,1201.45a4.154,4.154,0,1,1,4.154-4.154A4.159,4.159,0,0,1,320.738,1201.45Zm0-6.542a2.388,2.388,0,1,0,2.388,2.388A2.391,2.391,0,0,0,320.738,1194.908Z" transform="translate(-316.584 -1193.142)" fill="#2d9de0"/>
    </g>
    <path id="Path_5323" data-name="Path 5323" d="M326.781,1296.108a5.014,5.014,0,1,0-4.823,5.2A5.014,5.014,0,0,0,326.781,1296.108Z" transform="translate(-14.111 -62.698)" fill="#fff"/>
    <path id="Path_5324" data-name="Path 5324" d="M321.387,1292.411a7.885,7.885,0,0,0,.918-2.169l2.141-.737a10.447,10.447,0,0,0,.021-2.523l-2.125-.769a8.171,8.171,0,0,0-.883-2.192l.986-2.033a10.193,10.193,0,0,0-1.761-1.792l-2.054.954a8.128,8.128,0,0,0-2.169-.919l-.737-2.141a10.566,10.566,0,0,0-2.516-.018l-.778,2.128a7.939,7.939,0,0,0-2.182.879l-2.033-.986a10.061,10.061,0,0,0-.952.827,8.986,8.986,0,0,0-.84.934l.954,2.054a7.886,7.886,0,0,0-.918,2.169l-2.141.736a10.188,10.188,0,0,0-.018,2.516l2.121.776a8.122,8.122,0,0,0,.879,2.182l-.986,2.033a10.047,10.047,0,0,0,1.768,1.8l2.044-.951a8.135,8.135,0,0,0,2.169.919l.74,2.134a10.11,10.11,0,0,0,2.52.027l.779-2.128a8.086,8.086,0,0,0,2.175-.882l2.04.989a11.661,11.661,0,0,0,.952-.827,12.043,12.043,0,0,0,.843-.942Zm-3.73-.92a4.675,4.675,0,1,1,.059-6.607A4.673,4.673,0,0,1,317.657,1291.49Z" transform="translate(-6.642 -54.782)" fill="#e8edfc"/>
    <g id="Group_564" data-name="Group 564" transform="translate(296.706 1222.342)">
      <path id="Path_5325" data-name="Path 5325" d="M313.093,1297.892a10.858,10.858,0,0,1-1.483-.1l-.536-.074-.767-2.215a8.951,8.951,0,0,1-1.526-.646l-2.119.985-.426-.331a10.09,10.09,0,0,1-1.032-.924,9.792,9.792,0,0,1-.9-1.036l-.326-.431,1.022-2.108a9.039,9.039,0,0,1-.616-1.534l-2.2-.805-.065-.537a11.1,11.1,0,0,1,.018-2.734l.069-.545,2.224-.765a8.767,8.767,0,0,1,.648-1.527l-.988-2.128.331-.425a9.741,9.741,0,0,1,.922-1.026,10.926,10.926,0,0,1,1.036-.9l.431-.325,2.107,1.022a8.78,8.78,0,0,1,1.536-.619l.809-2.21.542-.062a11.48,11.48,0,0,1,2.727.019l.545.069.767,2.229a9.014,9.014,0,0,1,1.524.644l2.129-.989.425.331a10.862,10.862,0,0,1,1.016.911,11.3,11.3,0,0,1,.905,1.041l.331.433-1.026,2.114a9.069,9.069,0,0,1,.622,1.541l2.208.8.062.544a11.362,11.362,0,0,1-.022,2.736l-.071.543-2.223.765a8.736,8.736,0,0,1-.647,1.526l1,2.131-.346.429a12.865,12.865,0,0,1-.905,1.011,12.6,12.6,0,0,1-1.035.9l-.434.338-2.123-1.029a9,9,0,0,1-1.529.619l-.81,2.213-.542.062A11.208,11.208,0,0,1,313.093,1297.892Zm-.711-1.793a9.3,9.3,0,0,0,1.232.012l.746-2.04.456-.113a7.215,7.215,0,0,0,1.939-.785l.408-.241,1.958.95c.161-.138.314-.279.459-.419s.281-.29.419-.447l-.918-1.965.247-.4a6.985,6.985,0,0,0,.815-1.925l.117-.463,2.058-.708a9.521,9.521,0,0,0,.01-1.233l-2.039-.738-.112-.461a7.3,7.3,0,0,0-.789-1.956l-.236-.406.946-1.95c-.135-.157-.275-.308-.417-.453-.161-.159-.306-.3-.443-.421l-1.974.916-.4-.247a7.271,7.271,0,0,0-1.934-.818l-.456-.121-.706-2.051a9.677,9.677,0,0,0-1.229-.008l-.748,2.044-.46.11a7.023,7.023,0,0,0-1.939.781l-.408.241-1.954-.948c-.148.128-.3.267-.457.42s-.287.29-.419.437l.918,1.976-.247.4a6.983,6.983,0,0,0-.816,1.926l-.117.463-2.058.708a9.324,9.324,0,0,0-.01,1.228l2.036.744.113.456a7.261,7.261,0,0,0,.782,1.945l.241.408-.948,1.957c.134.156.271.3.411.444s.3.3.452.432l1.967-.915.4.247a7.215,7.215,0,0,0,1.934.818l.455.12Z" transform="translate(-302.043 -1275.82)" fill="#2d9de0"/>
    </g>
    <g id="Group_565" data-name="Group 565" transform="translate(302.186 1227.826)">
      <path id="Path_5326" data-name="Path 5326" d="M321.172,1300.51a5.557,5.557,0,1,1,3.9-1.595h0A5.535,5.535,0,0,1,321.172,1300.51Zm0-9.342a3.785,3.785,0,1,0,2.709,1.131A3.791,3.791,0,0,0,321.17,1291.168Zm3.28,7.118h0Z" transform="translate(-315.62 -1289.404)" fill="#2d9de0"/>
    </g>
    <g id="Group_566" data-name="Group 566" transform="translate(293.092 1208.558)">
      <path id="Path_5327" data-name="Path 5327" d="M295.4,1242.83a1.155,1.155,0,1,0-1.155,1.155A1.155,1.155,0,0,0,295.4,1242.83Z" transform="translate(-293.092 -1241.675)" fill="#2d9de0"/>
      <path id="Path_5328" data-name="Path 5328" d="M305.276,1242.83a1.155,1.155,0,1,0-1.155,1.155A1.155,1.155,0,0,0,305.276,1242.83Z" transform="translate(-298.98 -1241.675)" fill="#2d9de0"/>
      <path id="Path_5329" data-name="Path 5329" d="M295.506,1252.339a1.155,1.155,0,1,0-1.155,1.155A1.155,1.155,0,0,0,295.506,1252.339Z" transform="translate(-293.155 -1247.345)" fill="#2d9de0"/>
      <path id="Path_5330" data-name="Path 5330" d="M305.38,1252.339a1.155,1.155,0,1,0-1.155,1.155A1.155,1.155,0,0,0,305.38,1252.339Z" transform="translate(-299.043 -1247.345)" fill="#2d9de0"/>
    </g>
    <g id="Group_567" data-name="Group 567" transform="translate(293.092 1216.107)">
      <path id="Path_5331" data-name="Path 5331" d="M295.4,1261.53a1.155,1.155,0,1,0-1.155,1.155A1.155,1.155,0,0,0,295.4,1261.53Z" transform="translate(-293.092 -1260.375)" fill="#2d9de0"/>
      <path id="Path_5332" data-name="Path 5332" d="M305.276,1261.53a1.155,1.155,0,1,0-1.155,1.155A1.155,1.155,0,0,0,305.276,1261.53Z" transform="translate(-298.98 -1260.375)" fill="#2d9de0"/>
      <path id="Path_5333" data-name="Path 5333" d="M305.38,1271.038a1.155,1.155,0,1,0-1.155,1.155A1.155,1.155,0,0,0,305.38,1271.038Z" transform="translate(-299.043 -1266.045)" fill="#2d9de0"/>
    </g>
    <g id="Group_568" data-name="Group 568" transform="translate(297.12 1197.72)">
      <path id="Path_5334" data-name="Path 5334" d="M305.38,1215.981a1.155,1.155,0,1,0-1.155,1.155A1.155,1.155,0,0,0,305.38,1215.981Z" transform="translate(-303.071 -1214.826)" fill="#2d9de0"/>
    </g>
    <g id="Group_569" data-name="Group 569" transform="translate(293.092 1201.43)">
      <path id="Path_5335" data-name="Path 5335" d="M295.4,1225.172a1.155,1.155,0,1,0-1.155,1.155A1.155,1.155,0,0,0,295.4,1225.172Z" transform="translate(-293.092 -1224.017)" fill="#2d9de0"/>
      <path id="Path_5336" data-name="Path 5336" d="M305.276,1225.172a1.155,1.155,0,1,0-1.155,1.155A1.155,1.155,0,0,0,305.276,1225.172Z" transform="translate(-298.98 -1224.017)" fill="#2d9de0"/>
      <path id="Path_5337" data-name="Path 5337" d="M295.506,1234.68a1.155,1.155,0,1,0-1.155,1.155A1.155,1.155,0,0,0,295.506,1234.68Z" transform="translate(-293.155 -1229.687)" fill="#2d9de0"/>
      <path id="Path_5338" data-name="Path 5338" d="M305.38,1234.68a1.155,1.155,0,1,0-1.155,1.155A1.155,1.155,0,0,0,305.38,1234.68Z" transform="translate(-299.043 -1229.687)" fill="#2d9de0"/>
    </g>
  </g>
</svg>
