<svg xmlns="http://www.w3.org/2000/svg" width="46.847" height="48" viewBox="0 0 46.847 48">
  <g id="certificate" transform="translate(6 -0.007)">
    <g id="Group_1429" data-name="Group 1429" transform="translate(8.402 28.068)">
      <g id="Group_1428" data-name="Group 1428">
        <path id="Path_8359" data-name="Path 8359" d="M96.022,304.007Z" transform="translate(-96.022 -304.007)" fill="#0d223f"/>
      </g>
    </g>
    <g id="Group_1431" data-name="Group 1431" transform="translate(32.032 0.007)">
      <g id="Group_1430" data-name="Group 1430" transform="translate(-3 0)">
        <path id="Path_8360" data-name="Path 8360" d="M352.022.007V11.822h11.815Z" transform="translate(-352.022 -0.007)" fill="#0d223f"/>
      </g>
    </g>
    <g id="Group_1435" data-name="Group 1435" transform="translate(8.402 0.007)">
      <g id="Group_1434" data-name="Group 1434" transform="translate(0 0)">
        <path id="Path_8362" data-name="Path 8362" d="M116.652,14.776a2.959,2.959,0,0,1-2.954-2.954V.007H98.976a2.959,2.959,0,0,0-2.954,2.954V17.88a10.32,10.32,0,0,1,8.861,10.188,10.2,10.2,0,0,1-2.02,6.117l1.79,7.175h20.861a2.955,2.955,0,0,0,2.954-2.954V14.776H116.652Zm-13.246-2.954a1.477,1.477,0,0,1,0-2.954h5.861a1.477,1.477,0,0,1,0,2.954Zm17.677,17.723H109.314a1.477,1.477,0,0,1,0-2.954h11.769a1.477,1.477,0,0,1,0,2.954Zm0-8.861H106.36a1.477,1.477,0,1,1,0-2.954h14.723a1.477,1.477,0,0,1,0,2.954Z" transform="translate(-96.022 -0.007)" fill="#0d223f"/>
      </g>
    </g>
    <g id="medal" transform="translate(-6 18.469)">
      <path id="Path_8363" data-name="Path 8363" d="M87.3,20.7l1.351-2.192,2.438-.831.27-2.56L93.2,13.312l-.872-2.423L93.2,8.465,91.363,6.66l-.27-2.56-2.438-.831L87.3,1.077l-2.555.308L82.58,0l-2.17,1.385-2.555-.308L76.5,3.269,74.066,4.1,73.8,6.66,71.962,8.466l.872,2.423-.872,2.423L73.8,15.118l.27,2.56,2.438.831L77.854,20.7l2.555-.308,2.17,1.385,2.17-1.385ZM75.113,10.889a7.467,7.467,0,1,1,7.467,7.467A7.476,7.476,0,0,1,75.113,10.889Z" transform="translate(-71.962 0)" fill="#5099ff"/>
      <path id="Path_8364" data-name="Path 8364" d="M162.325,89.333a5.735,5.735,0,1,0,5.735,5.735A5.742,5.742,0,0,0,162.325,89.333Z" transform="translate(-151.708 -84.179)" fill="#5099ff"/>
      <path id="Path_8365" data-name="Path 8365" d="M88.056,344.96l-3.039.367-1.606-2.606-.546-.186-2.355,7.36,4.239-.233,3.316,2.65,1.952-6.1Z" transform="translate(-80.018 -322.773)" fill="#5099ff"/>
      <path id="Path_8366" data-name="Path 8366" d="M273.308,342.721l-1.606,2.606-3.039-.367-1.962,1.252,1.952,6.1,3.316-2.65,4.239.233-2.355-7.36Z" transform="translate(-255.466 -322.773)" fill="#5099ff"/>
    </g>
  </g>
</svg>
