<svg xmlns="http://www.w3.org/2000/svg" width="65.996" height="60" viewBox="0 0 65.996 60">
  <g id="Group_528" data-name="Group 528" transform="translate(-1152.59 -1186.861)">
    <g id="Group_520" data-name="Group 520" transform="translate(1152.59 1190.408)">
      <g id="Group_507" data-name="Group 507" transform="translate(3.448 0.262)">
        <path id="Path_5273" data-name="Path 5273" d="M1161.287,1238.537a1.062,1.062,0,0,1-.786-1.776l9.206-10.154,5.5,5.181,38.194-36.2a1.062,1.062,0,0,1,1.461,1.542l-39.651,37.581-5.387-5.073-7.752,8.55A1.059,1.059,0,0,1,1161.287,1238.537Z" transform="translate(-1160.225 -1195.297)" fill="#2d9de0"/>
      </g>
      <g id="Group_508" data-name="Group 508" transform="translate(1.061 38.991)">
        <path id="Path_5274" data-name="Path 5274" d="M1155.245,1283.088a3.448,3.448,0,1,0,4.561-1.727A3.448,3.448,0,0,0,1155.245,1283.088Z" transform="translate(-1154.94 -1281.056)" fill="#e8edfc"/>
      </g>
      <g id="Group_509" data-name="Group 509" transform="translate(0 37.928)">
        <path id="Path_5275" data-name="Path 5275" d="M1157.1,1287.726a4.515,4.515,0,0,1-4.11-6.366h0a4.507,4.507,0,1,1,4.11,6.366Zm-2.173-5.493a2.386,2.386,0,1,0,3.156-1.195,2.388,2.388,0,0,0-3.156,1.195Z" transform="translate(-1152.59 -1278.701)" fill="#2d9de0"/>
      </g>
      <g id="Group_510" data-name="Group 510" transform="translate(14.253 45.89)">
        <rect id="Rectangle_88" data-name="Rectangle 88" width="7.158" height="9.501" fill="#fff"/>
      </g>
      <g id="Group_511" data-name="Group 511" transform="translate(27.092 38.215)">
        <rect id="Rectangle_89" data-name="Rectangle 89" width="7.158" height="17.175" fill="#e8edfc"/>
      </g>
      <g id="Group_512" data-name="Group 512" transform="translate(39.931 27.621)">
        <rect id="Rectangle_90" data-name="Rectangle 90" width="7.158" height="27.769" fill="#fff"/>
      </g>
      <g id="Group_513" data-name="Group 513" transform="translate(52.77 17.209)">
        <rect id="Rectangle_91" data-name="Rectangle 91" width="7.158" height="38.182" fill="#d4e1f4"/>
      </g>
      <g id="Group_514" data-name="Group 514" transform="translate(13.191 44.827)">
        <path id="Path_5276" data-name="Path 5276" d="M1191.082,1305.6H1181.8v-11.625h9.283Zm-7.158-2.125h5.033V1296.1h-5.033Z" transform="translate(-1181.799 -1293.979)" fill="#2d9de0"/>
      </g>
      <g id="Group_515" data-name="Group 515" transform="translate(26.03 37.153)">
        <path id="Path_5277" data-name="Path 5277" d="M1219.512,1296.285h-9.283v-19.3h9.283Zm-7.158-2.125h5.033v-15.05h-5.033Z" transform="translate(-1210.229 -1276.985)" fill="#2d9de0"/>
      </g>
      <g id="Group_516" data-name="Group 516" transform="translate(38.869 26.559)">
        <path id="Path_5278" data-name="Path 5278" d="M1247.941,1283.42h-9.282v-29.894h9.282Zm-7.158-2.125h5.034v-25.644h-5.034Z" transform="translate(-1238.659 -1253.526)" fill="#2d9de0"/>
      </g>
      <g id="Group_517" data-name="Group 517" transform="translate(51.707 16.147)">
        <path id="Path_5279" data-name="Path 5279" d="M1276.371,1270.776h-9.283V1230.47h9.283Zm-7.158-2.125h5.033v-36.057h-5.033Z" transform="translate(-1267.088 -1230.47)" fill="#2d9de0"/>
      </g>
      <g id="Group_518" data-name="Group 518" transform="translate(0.383 54.328)">
        <path id="Path_5280" data-name="Path 5280" d="M1217.988,1317.141H1154.5a1.062,1.062,0,1,1,0-2.125h63.488a1.062,1.062,0,1,1,0,2.125Z" transform="translate(-1153.438 -1315.016)" fill="#2d9de0"/>
      </g>
      <g id="Group_519" data-name="Group 519" transform="translate(51.102)">
        <path id="Path_5281" data-name="Path 5281" d="M1271.589,1202.367a.79.79,0,0,1-.775-.948l1.018-5-5.246.323a.79.79,0,1,1-.1-1.577l7.3-.449-1.43,7.018A.791.791,0,0,1,1271.589,1202.367Z" transform="translate(-1265.746 -1194.716)" fill="#2d9de0"/>
      </g>
    </g>
    <g id="Group_527" data-name="Group 527" transform="translate(1165.193 1186.861)">
      <g id="Group_521" data-name="Group 521" transform="translate(11.908)">
        <circle id="Ellipse_6" data-name="Ellipse 6" cx="8.037" cy="8.037" r="8.037" transform="translate(0 15.844) rotate(-80.301)" fill="#e8edfc"/>
      </g>
      <g id="Group_522" data-name="Group 522" transform="translate(0 12.541)">
        <path id="Path_5282" data-name="Path 5282" d="M1181.525,1224.7a1.027,1.027,0,0,1-.727-1.754l1.118-1.118a1.028,1.028,0,0,1,1.453,1.453l-1.118,1.117A1.025,1.025,0,0,1,1181.525,1224.7Zm3.912-3.912a1.027,1.027,0,0,1-.727-1.754l4.1-4.1a1.028,1.028,0,0,1,1.453,1.453l-4.1,4.1A1.025,1.025,0,0,1,1185.437,1220.785Z" transform="translate(-1180.498 -1214.631)" fill="#2d9de0"/>
      </g>
      <g id="Group_523" data-name="Group 523" transform="translate(6.583 19.123)">
        <path id="Path_5283" data-name="Path 5283" d="M1196.1,1239.272a1.027,1.027,0,0,1-.727-1.754l1.118-1.117a1.027,1.027,0,1,1,1.453,1.453l-1.117,1.117A1.024,1.024,0,0,1,1196.1,1239.272Zm3.912-3.912a1.027,1.027,0,0,1-.727-1.754l4.1-4.1a1.028,1.028,0,0,1,1.453,1.453l-4.1,4.1A1.025,1.025,0,0,1,1200.013,1235.36Z" transform="translate(-1195.074 -1229.206)" fill="#2d9de0"/>
      </g>
      <g id="Group_524" data-name="Group 524" transform="translate(0.453 16.867)">
        <path id="Path_5284" data-name="Path 5284" d="M1182.528,1236.167a1.027,1.027,0,0,1-.727-1.754l1.118-1.117a1.028,1.028,0,1,1,1.453,1.453l-1.118,1.117A1.025,1.025,0,0,1,1182.528,1236.167Zm3.912-3.912a1.027,1.027,0,0,1-.727-1.754l5.991-5.99a1.028,1.028,0,0,1,1.453,1.453l-5.99,5.99A1.024,1.024,0,0,1,1186.44,1232.255Z" transform="translate(-1181.501 -1224.21)" fill="#2d9de0"/>
      </g>
      <g id="Group_525" data-name="Group 525" transform="translate(17.759 3.472)">
        <path id="Path_5285" data-name="Path 5285" d="M1226.583,1202.15a2.4,2.4,0,0,1-2.231,2.3l-.031,1.6a5.908,5.908,0,0,1-1.185.1,5.76,5.76,0,0,1-.825-.077l.032-1.674a5.616,5.616,0,0,1-2.522-1.226l.754-1.475a4.8,4.8,0,0,0,2.85,1.271c.753.014,1.21-.256,1.22-.752.029-1.523-4.311-.719-4.257-3.592a2.348,2.348,0,0,1,2.108-2.226l.046-1.813a6.474,6.474,0,0,1,.816-.04,5.96,5.96,0,0,1,1.191.145l-.044,1.7a5.751,5.751,0,0,1,2.127.839l-.732,1.5a5.676,5.676,0,0,0-2.506-.88c-.614-.012-1.036.2-1.044.639C1222.322,1199.987,1226.65,1199.238,1226.583,1202.15Z" transform="translate(-1219.822 -1194.548)" fill="#2d9de0"/>
      </g>
      <g id="Group_526" data-name="Group 526" transform="translate(12.089 0.181)">
        <path id="Path_5286" data-name="Path 5286" d="M1216.347,1205.456a9.112,9.112,0,1,1,.859-.04Q1216.774,1205.455,1216.347,1205.456Zm.028-16.075q-.329,0-.659.031a6.956,6.956,0,1,0,.659-.031Z" transform="translate(-1207.267 -1187.261)" fill="#2d9de0"/>
      </g>
    </g>
  </g>
</svg>
