<svg xmlns="http://www.w3.org/2000/svg" width="48.052" height="50" viewBox="0 0 48.052 50">
  <g id="cloud-computing" transform="translate(0 -0.277)">
    <g id="Group_1412" data-name="Group 1412" transform="translate(0 0.277)">
      <g id="Group_1411" data-name="Group 1411" transform="translate(0 0)">
        <path id="Path_8331" data-name="Path 8331" d="M40.941,10.029a11.455,11.455,0,0,0-11.1-8.671,11.334,11.334,0,0,0-5.737,1.536A10.027,10.027,0,0,0,7.33,9.966a10.023,10.023,0,0,0,2.692,19.677H38.03a10.023,10.023,0,0,0,2.912-19.613Z" transform="translate(0 -0.277)" fill="#0d223f"/>
      </g>
    </g>
    <g id="Group_1414" data-name="Group 1414" transform="translate(0 33.384)">
      <g id="Group_1413" data-name="Group 1413">
        <path id="Path_8332" data-name="Path 8332" d="M15.11,330.8v4.679H10.127a5.162,5.162,0,1,0,0,2.816h6.391a1.408,1.408,0,0,0,1.408-1.408V330.8Z" transform="translate(0 -331.723)" fill="#5099ff"/>
      </g>
    </g>
    <g id="Group_1416" data-name="Group 1416" transform="translate(18.864 34.458)">
      <g id="Group_1415" data-name="Group 1415">
        <path id="Path_8333" data-name="Path 8333" d="M207.57,348.862V341.17h-2.816v7.692a5.162,5.162,0,1,0,2.816,0Z" transform="translate(-201 -343.17)" fill="#5099ff"/>
      </g>
    </g>
    <g id="Group_1418" data-name="Group 1418" transform="translate(30.126 31.384)">
      <g id="Group_1417" data-name="Group 1417" transform="translate(0 2)">
        <path id="Path_8334" data-name="Path 8334" d="M333.764,331.723a5.17,5.17,0,0,0-4.965,3.754h-4.983V330.8H321v6.087a1.408,1.408,0,0,0,1.408,1.408H328.8a5.161,5.161,0,1,0,4.965-6.569Z" transform="translate(-321 -331.723)" fill="#5099ff"/>
      </g>
    </g>
  </g>
</svg>
