<svg xmlns="http://www.w3.org/2000/svg" width="52.364" height="48" viewBox="0 0 52.364 48">
  <g id="Group_1436" data-name="Group 1436" transform="translate(-702 -831)">
    <g id="imac" transform="translate(702 831)">
      <g id="Group_1436-2" data-name="Group 1436" transform="translate(0 0)">
        <path id="Path_8367" data-name="Path 8367" d="M48,21.333H4.364A4.369,4.369,0,0,0,0,25.7V56.242a4.369,4.369,0,0,0,4.364,4.364H19.641c-.046,1.74-.378,4.525-1.626,5.839a2.144,2.144,0,0,1-1.651.706,1.091,1.091,0,1,0,0,2.182H36a1.091,1.091,0,1,0,0-2.182,2.135,2.135,0,0,1-1.649-.705c-1.245-1.308-1.58-4.1-1.627-5.84H48a4.369,4.369,0,0,0,4.364-4.364V25.7A4.369,4.369,0,0,0,48,21.333ZM26.182,58.43a2.188,2.188,0,1,1,2.188-2.188A2.191,2.191,0,0,1,26.182,58.43ZM4.364,51.878V25.7H48l0,26.182Z" transform="translate(0 -21.333)" fill="#0d223f"/>
      </g>
    </g>
    <g id="settings_2_" data-name="settings (2)" transform="translate(718.677 833.417) rotate(11)">
      <g id="Group_1438" data-name="Group 1438" transform="translate(0 6.848)">
        <g id="Group_1437" data-name="Group 1437" transform="translate(0 0)">
          <path id="Path_8368" data-name="Path 8368" d="M15.955,9.345a7.263,7.263,0,0,0-.046-1.756L17.238,7a8.759,8.759,0,0,0-1.605-3.605L14.3,3.983a7.286,7.286,0,0,0-1.274-1.208l.522-1.359A8.8,8.8,0,0,0,9.866,0L9.343,1.36a7.262,7.262,0,0,0-1.756.046L7,.083A8.791,8.791,0,0,0,3.4,1.7l.585,1.314A7.274,7.274,0,0,0,2.772,4.286l-1.355-.52A8.641,8.641,0,0,0,.5,5.527,8.9,8.9,0,0,0,0,7.449l1.359.522a7.263,7.263,0,0,0,.046,1.756l-1.33.592a8.752,8.752,0,0,0,1.606,3.605l1.33-.592a7.26,7.26,0,0,0,1.274,1.209L3.764,15.9a8.8,8.8,0,0,0,3.684,1.416l.522-1.36a7.285,7.285,0,0,0,1.756-.047l.589,1.323a8.791,8.791,0,0,0,3.6-1.615L13.332,14.3a7.275,7.275,0,0,0,1.209-1.274l1.355.52a8.649,8.649,0,0,0,.922-1.76,8.8,8.8,0,0,0,.5-1.923Zm-3.612.727a3.947,3.947,0,1,1-2.272-5.1A3.948,3.948,0,0,1,12.342,10.072Z" fill="#5099ff"/>
        </g>
      </g>
      <g id="Group_1440" data-name="Group 1440" transform="translate(13.914 0)">
        <g id="Group_1439" data-name="Group 1439" transform="translate(0 0)">
          <path id="Path_8369" data-name="Path 8369" d="M9.4,5.356a4.245,4.245,0,0,0-.073-.771L10.35,4A5.35,5.35,0,0,0,8.942,1.553l-1.022.59a4.2,4.2,0,0,0-1.336-.77V.194a5.216,5.216,0,0,0-2.819,0V1.373a4.212,4.212,0,0,0-1.336.77l-1.022-.59A5.361,5.361,0,0,0,0,4l1.02.589a4.075,4.075,0,0,0,0,1.543L0,6.717A5.359,5.359,0,0,0,1.407,9.159l1.022-.59a4.2,4.2,0,0,0,1.336.77v1.179a5.216,5.216,0,0,0,2.819,0V9.34a4.208,4.208,0,0,0,1.336-.77l1.022.59a5.35,5.35,0,0,0,1.407-2.443L9.33,6.128A4.215,4.215,0,0,0,9.4,5.356ZM5.175,7.33A1.974,1.974,0,1,1,7.148,5.356,1.974,1.974,0,0,1,5.175,7.33Z" fill="#5099ff"/>
        </g>
      </g>
    </g>
  </g>
</svg>
