<svg xmlns="http://www.w3.org/2000/svg" width="35" height="35" viewBox="0 0 35 35">
  <g id="Group_639" data-name="Group 639" transform="translate(-1212 -1495)">
    <rect id="Rectangle_111" data-name="Rectangle 111" width="24" height="20" transform="translate(1218 1503)" fill="#fff"/>
    <g id="youtube_1_" data-name="youtube (1)" transform="translate(1212 1495)">
      <path id="Path_5443" data-name="Path 5443" d="M224.113,214.6l5.693-3.279-5.693-3.279Zm0,0" transform="translate(-208.793 -193.818)" fill="#dd352e"/>
      <path id="Path_5444" data-name="Path 5444" d="M17.5,0A17.5,17.5,0,1,0,35,17.5,17.5,17.5,0,0,0,17.5,0ZM28.435,17.518a28.883,28.883,0,0,1-.45,5.26,2.74,2.74,0,0,1-1.928,1.927c-1.711.45-8.557.45-8.557.45s-6.828,0-8.557-.468A2.741,2.741,0,0,1,7.015,22.76a28.756,28.756,0,0,1-.45-5.26,28.864,28.864,0,0,1,.45-5.26,2.8,2.8,0,0,1,1.928-1.946c1.711-.45,8.557-.45,8.557-.45s6.846,0,8.557.468a2.741,2.741,0,0,1,1.928,1.928,27.409,27.409,0,0,1,.45,5.278Zm0,0" fill="#dd352e"/>
    </g>
  </g>
</svg>
